<svg width="284" height="80" viewBox="0 0 284 80" fill="none" xmlns="http://www.w3.org/2000/svg">
<path d="M5.456 77.176C3.81333 77 2.49333 76.3546 1.496 75.24C0.498665 74.1253 -1.84774e-06 72.8053 -1.84774e-06 71.28C-1.84774e-06 71.0453 -1.84774e-06 70.8106 -1.84774e-06 70.576C-1.84774e-06 70.4 0.0293315 70.1946 0.0879983 69.96C0.557332 67.848 1.76 65.7946 3.696 63.8C5.632 61.8053 8.24267 60.1626 11.528 58.872C14.8133 57.5226 18.6267 56.848 22.968 56.848C24.024 56.848 25.1093 56.9066 26.224 57.024C27.3973 57.0826 28.512 57.2586 29.568 57.552C30.9173 56.0266 32.208 54.3253 33.44 52.448C34.7307 50.5706 36.0213 48.576 37.312 46.464H36.432C36.1387 46.464 35.8453 46.464 35.552 46.464C35.3173 46.464 35.0533 46.4346 34.76 46.376C30.1253 45.9653 26.576 44.704 24.112 42.592C21.7067 40.48 20.504 37.6346 20.504 34.056C20.504 33.528 20.5333 33 20.592 32.472C20.7093 31.944 20.7973 31.3866 20.856 30.8C21.3253 27.808 22.4987 25.168 24.376 22.88C26.2533 20.592 28.4533 18.656 30.976 17.072C33.5573 15.488 36.1093 14.256 38.632 13.376C41.2133 12.4373 43.4133 11.8506 45.232 11.616C45.3493 11.616 45.4373 11.616 45.496 11.616C45.5547 11.5573 45.6133 11.528 45.672 11.528C46.3173 11.528 46.64 11.7626 46.64 12.232C46.64 12.76 46.2293 13.0826 45.408 13.2C43.7653 13.4933 41.888 14.1386 39.776 15.136C37.664 16.1333 35.5813 17.4533 33.528 19.096C31.4747 20.68 29.6853 22.5573 28.16 24.728C26.6933 26.8986 25.7253 29.304 25.256 31.944C25.1973 32.3546 25.1387 32.7946 25.08 33.264C25.08 33.6746 25.08 34.0853 25.08 34.496C25.08 37.1946 25.96 39.336 27.72 40.92C29.5387 42.4453 32.3253 43.4426 36.08 43.912C36.3147 43.9706 36.784 44 37.488 44H38.896C40.656 40.8906 42.504 37.7226 44.44 34.496C46.376 31.0346 48.3707 27.6906 50.424 24.464C52.536 21.1786 54.736 18.0693 57.024 15.136C59.312 12.144 61.688 9.53329 64.152 7.30396C69.6667 2.43463 75.3573 -3.91006e-05 81.224 -3.91006e-05C83.16 -3.91006e-05 84.656 0.615962 85.712 1.84796C86.768 3.0213 87.296 4.63463 87.296 6.68796C87.296 6.9813 87.2667 7.30396 87.208 7.65596C87.208 8.00796 87.1787 8.38929 87.12 8.79996C86.2987 13.024 84.6267 17.2186 82.104 21.384C79.5813 25.5493 76.3547 29.3626 72.424 32.824C68.4933 36.2853 64.1227 39.16 59.312 41.448C54.56 43.6773 49.6613 45.2026 44.616 46.024C42.856 48.664 41.1547 51.0693 39.512 53.24C37.928 55.4106 36.4613 57.3173 35.112 58.96C36.8133 59.488 38.4853 60.0453 40.128 60.632C41.7707 61.2186 43.3547 61.8053 44.88 62.392C45.936 62.8026 47.168 63.36 48.576 64.064C49.984 64.768 51.4213 65.5306 52.888 66.352C53.8853 66.8213 54.824 67.2906 55.704 67.76C56.6427 68.2293 57.4933 68.64 58.256 68.992C60.016 69.8133 61.7467 70.488 63.448 71.016C65.1493 71.544 66.7333 71.808 68.2 71.808C69.3147 71.808 70.4 71.632 71.456 71.28C72.2187 70.9866 72.8347 69.9893 73.304 68.288C73.7733 66.6453 74.008 64.3866 74.008 61.512C74.008 59.9866 73.92 58.3733 73.744 56.672C73.568 54.9706 73.2453 53.328 72.776 51.744C72.776 51.6853 72.7467 51.656 72.688 51.656C72.688 51.5973 72.688 51.5386 72.688 51.48C72.688 51.128 72.8347 50.952 73.128 50.952C73.5387 50.952 73.9493 51.392 74.36 52.272C74.712 52.8586 75.064 53.4453 75.416 54.032C75.768 54.6186 76.0907 55.2053 76.384 55.792C77.2053 57.2 77.9387 58.5786 78.584 59.928C79.2293 61.2186 79.552 62.6266 79.552 64.152C79.552 64.9733 79.4053 65.912 79.112 66.968C78.7013 68.4346 77.704 69.7546 76.12 70.928C74.5947 72.16 73.216 72.9813 71.984 73.392C70.4 73.8613 68.7573 74.096 67.056 74.096C64.3573 74.096 61.4827 73.6853 58.432 72.864C55.3813 72.0426 52.4773 71.0746 49.72 69.96C46.9627 68.8453 44.616 67.8773 42.68 67.056C41.2133 66.4106 39.424 65.7653 37.312 65.12C35.2587 64.5333 33.1467 64.0053 30.976 63.536C29.3333 65.1786 27.456 66.8506 25.344 68.552C23.232 70.2533 21.0027 71.7786 18.656 73.128C16.368 74.536 14.08 75.6213 11.792 76.384C9.56267 77.1466 7.45067 77.4106 5.456 77.176ZM46.552 43.032C50.4827 42.0346 54.472 40.4213 58.52 38.192C62.6267 35.9626 66.44 33.3226 69.96 30.272C73.8907 26.8693 77.0587 23.32 79.464 19.624C81.8693 15.8693 83.3947 12.2613 84.04 8.79996C84.0987 8.5653 84.128 8.35996 84.128 8.18396C84.128 8.00796 84.128 7.83196 84.128 7.65596C84.128 5.60263 83.0427 4.57596 80.872 4.57596C79.5813 4.57596 78.2027 5.04529 76.736 5.98396C73.5093 8.09596 69.6373 11.88 65.12 17.336C64.1227 18.6266 63.0667 19.976 61.952 21.384C60.896 22.7333 59.8107 24.1706 58.696 25.696C56.6427 28.512 54.5893 31.416 52.536 34.408C50.4827 37.3413 48.488 40.216 46.552 43.032ZM7.216 74.536C9.21067 74.536 11.264 73.8906 13.376 72.6C15.5467 71.3093 17.6293 69.7253 19.624 67.848C21.6187 66.0293 23.4373 64.24 25.08 62.48C24.6693 62.48 24.2293 62.48 23.76 62.48C23.3493 62.4213 22.968 62.3626 22.616 62.304C19.3307 62.128 16.2507 62.392 13.376 63.096C10.56 63.7413 8.21333 64.68 6.336 65.912C4.4 67.144 3.22667 68.5813 2.816 70.224C2.75733 70.4586 2.728 70.7813 2.728 71.192C2.728 72.1893 3.10933 72.9813 3.872 73.568C4.63467 74.2133 5.74933 74.536 7.216 74.536ZM90.5176 64.856C88.347 64.856 86.5576 63.9466 85.1496 62.128C83.8003 60.3093 83.1256 58.0506 83.1256 55.352C83.1256 53.1226 83.4776 51.0106 84.1816 49.016C85.5896 45.144 87.9363 41.4773 91.2216 38.016C93.5683 35.6693 96.003 33.792 98.5256 32.384C101.107 30.9173 103.395 30.184 105.39 30.184C107.091 30.184 108.44 30.624 109.438 31.504C110.494 32.384 111.022 33.44 111.022 34.672C111.022 35.2 110.875 35.8453 110.582 36.608C111.227 36.6666 111.843 36.7253 112.43 36.784C113.016 36.784 113.603 36.784 114.19 36.784C115.363 36.784 116.507 36.7253 117.622 36.608C118.795 36.4906 119.91 36.3146 120.966 36.08H121.406C122.168 36.08 122.55 36.344 122.55 36.872C122.55 37.2826 122.198 37.6346 121.494 37.928C120.907 38.1626 119.939 38.3973 118.59 38.632C117.299 38.8666 115.891 39.072 114.366 39.248C112.899 39.3653 111.579 39.424 110.406 39.424C109.995 39.424 109.614 39.424 109.262 39.424C108.968 39.424 108.704 39.3946 108.47 39.336L108.118 39.512C108.704 40.4506 108.998 41.7706 108.998 43.472C108.998 45.8186 108.411 48.2533 107.238 50.776C106.123 53.24 104.627 55.5573 102.75 57.728C100.931 59.84 98.9363 61.5706 96.7656 62.92C94.595 64.2106 92.5123 64.856 90.5176 64.856ZM91.3096 61.864C92.835 61.864 94.331 61.3066 95.7976 60.192C97.2643 59.0773 98.6136 57.6106 99.8456 55.792C101.078 53.9733 102.104 52.008 102.926 49.896C103.806 47.784 104.363 45.76 104.598 43.824C104.656 43.472 104.686 43.1493 104.686 42.856C104.686 42.504 104.686 42.2106 104.686 41.976C104.686 41.096 104.598 40.392 104.422 39.864H104.246C103.483 39.688 102.926 39.512 102.574 39.336C102.222 39.1013 101.87 38.808 101.518 38.456L101.43 38.368C101.195 38.1333 101.048 37.928 100.99 37.752C100.99 37.5173 100.99 37.2826 100.99 37.048C100.99 36.52 101.195 36.1093 101.606 35.816C102.016 35.464 102.515 35.3466 103.102 35.464L107.502 36.256C107.971 35.3173 108.206 34.584 108.206 34.056C108.206 32.8826 107.296 32.296 105.478 32.296C103.894 32.296 102.163 33.1173 100.286 34.76C98.467 36.344 96.707 38.3386 95.0056 40.744C93.363 43.0906 91.9256 45.4373 90.6936 47.784C90.107 48.9573 89.6083 50.3946 89.1976 52.096C88.787 53.7386 88.5816 55.3226 88.5816 56.848C88.5816 58.256 88.787 59.4586 89.1976 60.456C89.667 61.3946 90.371 61.864 91.3096 61.864ZM119.206 67.144C116.86 67.144 115.041 66.4106 113.75 64.944C112.46 63.536 111.814 61.4826 111.814 58.784C111.814 57.0826 112.02 55.2053 112.43 53.152C112.9 51.0986 113.457 49.104 114.102 47.168C114.806 45.1733 115.51 43.5306 116.214 42.24C117.388 39.776 118.796 37.312 120.438 34.848C122.081 32.3253 123.87 30.0373 125.806 27.984C127.742 25.872 129.737 24.1706 131.79 22.88C133.844 21.5893 135.868 20.944 137.862 20.944C139.564 20.944 140.913 21.5893 141.91 22.88C142.966 24.1706 143.494 25.6666 143.494 27.368C143.494 29.0693 142.966 30.6826 141.91 32.208C140.972 33.6746 140.062 34.7893 139.182 35.552C138.302 36.256 137.628 36.608 137.158 36.608C136.689 36.608 136.454 36.2853 136.454 35.64C136.454 35.3466 136.513 34.9653 136.63 34.496C136.748 34.0266 136.924 33.4986 137.158 32.912C137.393 32.384 137.657 31.68 137.95 30.8C138.302 29.8613 138.625 28.864 138.918 27.808C139.212 26.752 139.329 25.8426 139.27 25.08C138.156 24.904 136.865 25.3146 135.398 26.312C133.99 27.2506 132.553 28.512 131.086 30.096C129.62 31.6213 128.241 33.264 126.95 35.024C125.66 36.784 124.604 38.4266 123.782 39.952C123.137 41.0666 122.433 42.4746 121.67 44.176C120.908 45.8773 120.204 47.6373 119.558 49.456C118.913 51.2746 118.385 52.9466 117.974 54.472C117.74 55.4106 117.564 56.2906 117.446 57.112C117.329 57.8746 117.27 58.5786 117.27 59.224C117.27 61.9813 118.268 63.36 120.262 63.36C125.132 63.36 130.5 60.2506 136.366 54.032C137.657 52.7413 138.742 51.48 139.622 50.248C139.798 49.9546 140.033 49.808 140.326 49.808C141.03 49.808 141.382 50.2186 141.382 51.04C141.382 51.4506 141.236 51.8026 140.942 52.096L137.07 56.672C135.78 58.1973 134.137 59.7813 132.142 61.424C130.206 63.008 128.094 64.3573 125.806 65.472C123.577 66.5866 121.377 67.144 119.206 67.144ZM158.175 64.856C157.002 64.856 156.034 64.416 155.271 63.536C154.567 62.656 154.215 61.424 154.215 59.84C154.215 58.7253 154.391 57.5226 154.743 56.232C154.861 55.7626 155.154 54.9706 155.623 53.856C156.151 52.6826 156.679 51.5093 157.207 50.336C157.383 50.0426 157.53 49.7493 157.647 49.456C155.946 51.6853 154.069 53.68 152.015 55.44C149.962 57.1413 147.791 57.992 145.503 57.992C143.509 57.9333 142.101 57.4053 141.279 56.408C140.458 55.352 140.047 54.0906 140.047 52.624C140.047 50.9813 140.399 49.192 141.103 47.256C141.866 45.32 142.687 43.6186 143.567 42.152C145.093 39.7466 146.941 37.4 149.111 35.112C151.341 32.7653 153.717 30.8293 156.239 29.304C158.762 27.7786 161.167 27.016 163.455 27.016C166.037 27.016 168.383 27.8666 170.495 29.568C171.023 29.9786 171.375 30.4186 171.551 30.888C171.786 31.3573 171.903 31.768 171.903 32.12C171.903 32.648 171.757 33.088 171.463 33.44C171.17 33.792 170.818 33.968 170.407 33.968C169.762 33.968 169.263 33.4986 168.911 32.56C168.559 31.5626 168.09 30.8586 167.503 30.448C166.917 30.0373 166.271 29.832 165.567 29.832C164.159 29.832 162.546 30.4773 160.727 31.768C158.909 33.0586 157.119 34.6426 155.359 36.52C153.306 38.5733 151.487 40.832 149.903 43.296C148.378 45.7013 147.205 47.9013 146.383 49.896C145.621 51.5973 145.239 52.888 145.239 53.768C145.239 54.5893 145.562 55 146.207 55C147.087 55 148.437 54.2666 150.255 52.8C151.546 51.8026 152.925 50.512 154.391 48.928C155.917 47.344 157.354 45.76 158.703 44.176C160.053 42.592 161.109 41.36 161.871 40.48C162.165 40.0106 162.429 39.5706 162.663 39.16C162.957 38.7493 163.221 38.3973 163.455 38.104C164.101 37.224 165.098 36.784 166.447 36.784C167.327 36.784 168.061 36.9893 168.647 37.4C169.293 37.8106 169.469 38.368 169.175 39.072C168.999 39.3653 168.765 39.8053 168.471 40.392C168.178 40.92 167.826 41.5946 167.415 42.416C166.653 43.824 165.802 45.4666 164.863 47.344C163.925 49.2213 163.045 50.9813 162.223 52.624C161.402 54.2666 160.786 55.5573 160.375 56.496C159.495 58.256 159.055 59.5173 159.055 60.28C159.055 60.808 159.261 61.072 159.671 61.072C159.847 61.072 160.053 61.0133 160.287 60.896C160.581 60.7786 160.903 60.632 161.255 60.456C162.311 59.8693 163.455 59.048 164.687 57.992C165.919 56.936 167.239 55.5866 168.647 53.944C169.293 53.2986 169.879 52.6826 170.407 52.096C170.935 51.4506 171.434 50.8346 171.903 50.248C172.079 49.9546 172.314 49.808 172.607 49.808C173.311 49.808 173.663 50.2186 173.663 51.04C173.663 51.4506 173.517 51.8026 173.223 52.096C172.578 52.9173 171.933 53.7093 171.287 54.472C170.642 55.2346 169.967 55.9973 169.263 56.76C168.618 57.5226 167.943 58.2853 167.239 59.048C166.594 59.8106 165.89 60.5146 165.127 61.16C163.837 62.4506 162.575 63.3893 161.343 63.976C160.17 64.5626 159.114 64.856 158.175 64.856ZM171.834 79.992C170.367 79.992 169.252 79.4053 168.49 78.232C167.668 77.1173 167.258 75.5626 167.258 73.568C167.258 73.0986 167.287 72.5706 167.346 71.984C167.404 71.3973 167.492 70.8106 167.61 70.224C167.668 70.1066 167.727 69.9013 167.786 69.608C167.786 69.3733 167.815 69.1386 167.874 68.904C168.05 68.024 168.284 66.9093 168.578 65.56C168.871 64.2106 169.194 62.8906 169.546 61.6C170.074 59.3706 170.807 56.8773 171.746 54.12C172.743 51.304 173.887 48.3413 175.178 45.232C176.175 42.8853 177.172 40.6853 178.17 38.632C179.167 36.52 180.164 34.496 181.162 32.56H169.722C168.783 32.56 168.314 32.296 168.314 31.768C168.314 30.7706 169.106 30.272 170.69 30.272H182.394C183.86 27.6906 185.386 25.2266 186.97 22.88C188.554 20.5333 190.284 18.3626 192.162 16.368C193.218 15.136 194.186 14.2853 195.066 13.816C196.004 13.288 196.914 12.936 197.794 12.76C198.732 12.5253 199.759 12.2906 200.874 12.056L201.314 12.76C198.791 15.8693 196.532 18.832 194.538 21.648C192.543 24.464 190.695 27.3386 188.994 30.272H201.226C202.223 30.272 202.722 30.5653 202.722 31.152C202.722 31.4453 202.487 31.768 202.018 32.12C201.607 32.4133 201.05 32.56 200.346 32.56H187.674C186.324 34.9653 185.004 37.5173 183.714 40.216C182.423 42.9146 181.074 45.848 179.666 49.016C178.434 51.7146 177.319 54.6186 176.322 57.728C175.324 60.7786 174.532 63.5653 173.946 66.088C173.418 68.6106 173.154 70.4293 173.154 71.544C173.154 73.9493 173.74 75.152 174.914 75.152C175.5 75.152 176.292 74.8293 177.29 74.184C179.578 72.776 181.602 71.3093 183.362 69.784C185.18 68.3173 186.911 66.792 188.554 65.208C189.727 64.0933 191.106 62.6853 192.69 60.984C194.274 59.224 195.74 57.6106 197.09 56.144C197.383 55.8506 197.647 55.5573 197.882 55.264C198.116 54.9706 198.351 54.7066 198.586 54.472L200.082 52.8C200.316 52.5653 200.58 52.448 200.874 52.448C201.578 52.448 201.93 52.8 201.93 53.504C201.93 53.7973 201.754 54.1786 201.402 54.648C201.05 55.176 200.698 55.616 200.346 55.968L199.29 57.288C196.767 60.456 193.98 63.624 190.93 66.792C187.879 69.96 184.711 72.864 181.426 75.504C180.076 76.56 178.639 77.5573 177.114 78.496C175.647 79.4933 173.887 79.992 171.834 79.992ZM218.898 26.048C218.135 26.048 217.49 25.8133 216.962 25.344C216.434 24.816 216.17 24.1706 216.17 23.408C216.17 22.4106 216.522 21.56 217.226 20.856C217.93 20.152 218.751 19.8 219.69 19.8C220.629 19.8 221.333 20.1226 221.802 20.768C222.33 21.4133 222.535 22.176 222.418 23.056C222.183 23.936 221.743 24.6693 221.098 25.256C220.453 25.784 219.719 26.048 218.898 26.048ZM204.642 64.504C202.999 64.504 201.738 63.976 200.858 62.92C200.037 61.8053 199.626 60.28 199.626 58.344C199.626 57.464 199.714 56.496 199.89 55.44C200.125 54.208 200.565 52.7413 201.21 51.04C201.914 49.28 202.706 47.52 203.586 45.76C204.466 44 205.258 42.504 205.962 41.272C206.607 40.1573 207.37 38.8666 208.25 37.4C209.189 35.8746 209.951 34.584 210.538 33.528C211.007 32.7653 211.33 32.296 211.506 32.12C211.917 31.2986 212.679 30.6533 213.794 30.184C214.909 29.656 215.935 29.392 216.874 29.392C218.106 29.392 218.722 29.7733 218.722 30.536C218.722 30.888 218.546 31.328 218.194 31.856C217.079 33.6746 215.759 35.7866 214.234 38.192C212.767 40.5386 211.33 42.9733 209.922 45.496C208.514 48.0186 207.341 50.424 206.402 52.712C205.522 54.9413 205.082 56.848 205.082 58.432C205.082 60.0746 205.698 60.896 206.93 60.896C207.751 60.896 208.749 60.456 209.922 59.576C211.095 58.696 212.239 57.6986 213.354 56.584C214.469 55.4693 215.319 54.5893 215.906 53.944L217.666 52.096C217.959 51.8026 218.223 51.5093 218.458 51.216C218.693 50.864 218.927 50.5413 219.162 50.248C219.338 49.9546 219.573 49.808 219.866 49.808C220.57 49.808 220.922 50.2186 220.922 51.04C220.922 51.4506 220.775 51.8026 220.482 52.096C219.837 52.9173 219.191 53.7093 218.546 54.472C217.901 55.2346 217.226 55.9973 216.522 56.76C215.525 57.9333 214.41 59.136 213.178 60.368C211.946 61.5413 210.626 62.5386 209.218 63.36C207.81 64.1226 206.285 64.504 204.642 64.504ZM225.611 64.856C223.441 64.856 221.651 63.9466 220.243 62.128C218.894 60.3093 218.219 58.0506 218.219 55.352C218.219 53.1226 218.571 51.0106 219.275 49.016C220.683 45.144 223.03 41.4773 226.315 38.016C228.662 35.6693 231.097 33.792 233.619 32.384C236.201 30.9173 238.489 30.184 240.483 30.184C242.185 30.184 243.534 30.624 244.531 31.504C245.587 32.384 246.115 33.44 246.115 34.672C246.115 35.2 245.969 35.8453 245.675 36.608C246.321 36.6666 246.937 36.7253 247.523 36.784C248.11 36.784 248.697 36.784 249.283 36.784C250.457 36.784 251.601 36.7253 252.715 36.608C253.889 36.4906 255.003 36.3146 256.059 36.08H256.499C257.262 36.08 257.643 36.344 257.643 36.872C257.643 37.2826 257.291 37.6346 256.587 37.928C256.001 38.1626 255.033 38.3973 253.683 38.632C252.393 38.8666 250.985 39.072 249.459 39.248C247.993 39.3653 246.673 39.424 245.499 39.424C245.089 39.424 244.707 39.424 244.355 39.424C244.062 39.424 243.798 39.3946 243.563 39.336L243.211 39.512C243.798 40.4506 244.091 41.7706 244.091 43.472C244.091 45.8186 243.505 48.2533 242.331 50.776C241.217 53.24 239.721 55.5573 237.843 57.728C236.025 59.84 234.03 61.5706 231.859 62.92C229.689 64.2106 227.606 64.856 225.611 64.856ZM226.403 61.864C227.929 61.864 229.425 61.3066 230.891 60.192C232.358 59.0773 233.707 57.6106 234.939 55.792C236.171 53.9733 237.198 52.008 238.019 49.896C238.899 47.784 239.457 45.76 239.691 43.824C239.75 43.472 239.779 43.1493 239.779 42.856C239.779 42.504 239.779 42.2106 239.779 41.976C239.779 41.096 239.691 40.392 239.515 39.864H239.339C238.577 39.688 238.019 39.512 237.667 39.336C237.315 39.1013 236.963 38.808 236.611 38.456L236.523 38.368C236.289 38.1333 236.142 37.928 236.083 37.752C236.083 37.5173 236.083 37.2826 236.083 37.048C236.083 36.52 236.289 36.1093 236.699 35.816C237.11 35.464 237.609 35.3466 238.195 35.464L242.595 36.256C243.065 35.3173 243.299 34.584 243.299 34.056C243.299 32.8826 242.39 32.296 240.571 32.296C238.987 32.296 237.257 33.1173 235.379 34.76C233.561 36.344 231.801 38.3386 230.099 40.744C228.457 43.0906 227.019 45.4373 225.787 47.784C225.201 48.9573 224.702 50.3946 224.291 52.096C223.881 53.7386 223.675 55.3226 223.675 56.848C223.675 58.256 223.881 59.4586 224.291 60.456C224.761 61.3946 225.465 61.864 226.403 61.864ZM266.004 64.592C263.892 64.592 262.836 63.1546 262.836 60.28C262.836 58.2853 263.423 55.9973 264.596 53.416C265.769 50.776 267.031 48.1653 268.38 45.584C269.553 43.1786 270.609 40.92 271.548 38.808C272.545 36.696 273.044 34.936 273.044 33.528C273.044 32.12 272.663 31.416 271.9 31.416C271.313 31.416 270.521 31.768 269.524 32.472C268.468 33.2346 267.265 34.4666 265.916 36.168L264.244 38.192C264.009 38.544 263.745 38.896 263.452 39.248C263.217 39.6 262.953 39.9226 262.66 40.216C261.017 42.3866 259.316 44.6746 257.556 47.08C255.855 49.4266 254.3 51.5973 252.892 53.592C251.543 55.5866 250.516 57.2 249.812 58.432C249.225 59.5466 248.492 60.104 247.612 60.104C247.025 60.104 246.527 59.8693 246.116 59.4C245.705 58.872 245.5 58.1973 245.5 57.376C245.5 56.9066 245.588 56.408 245.764 55.88C246.937 53.7093 248.052 51.4506 249.108 49.104C250.164 46.7573 251.191 44.4106 252.188 42.064C253.009 40.128 253.831 38.2506 254.652 36.432C255.532 34.5546 256.383 32.7946 257.204 31.152C257.732 30.1546 258.641 29.2453 259.932 28.424C261.223 27.6026 262.396 27.192 263.452 27.192C264.625 27.192 265.212 27.632 265.212 28.512C265.212 29.1573 264.919 29.9493 264.332 30.888C263.511 32.1786 262.396 33.9973 260.988 36.344C259.639 38.632 258.377 40.8613 257.204 43.032C257.732 42.328 258.319 41.5653 258.964 40.744C259.609 39.864 260.313 38.9546 261.076 38.016L263.892 34.672C265.593 32.6186 267.265 31.1226 268.908 30.184C270.551 29.1866 272.193 28.688 273.836 28.688C276.711 28.688 278.148 30.008 278.148 32.648C278.148 34.232 277.825 35.7866 277.18 37.312C276.535 38.8373 276.007 40.04 275.596 40.92C272.956 46.552 271.02 51.0986 269.788 54.56C268.615 58.0213 268.321 59.752 268.908 59.752C269.495 59.752 270.404 59.3413 271.636 58.52C272.927 57.64 274.481 56.4373 276.3 54.912C277.239 54.032 278.177 53.0933 279.116 52.096C280.055 51.0986 281.023 50.0133 282.02 48.84C282.431 48.3706 282.812 48.136 283.164 48.136C283.575 48.136 283.78 48.4586 283.78 49.104C283.78 49.7493 283.575 50.3946 283.164 51.04C282.812 51.6266 282.225 52.4186 281.404 53.416C280.641 54.3546 279.849 55.264 279.028 56.144C276.153 59.2533 273.073 61.688 269.788 63.448C269.26 63.7413 268.791 63.9466 268.38 64.064C268.028 64.24 267.705 64.3573 267.412 64.416C267.177 64.4746 266.943 64.504 266.708 64.504C266.532 64.5626 266.297 64.592 266.004 64.592Z" fill="#F4F3F3"/>
</svg>
