<svg width="30" height="31" viewBox="0 0 30 31" fill="none" xmlns="http://www.w3.org/2000/svg">
<path d="M25 13C25 20.5 15 28 15 28C15 28 5 20.5 5 13C5 10.3478 6.05357 7.8043 7.92893 5.92893C9.8043 4.05357 12.3478 3 15 3C17.6522 3 20.1957 4.05357 22.0711 5.92893C23.9464 7.8043 25 10.3478 25 13Z" stroke="#F4F3F3" stroke-width="2" stroke-linecap="round" stroke-linejoin="round"/>
<path d="M15 16.7916C17.0711 16.7916 18.75 15.0567 18.75 12.9166C18.75 10.7765 17.0711 9.04163 15 9.04163C12.9289 9.04163 11.25 10.7765 11.25 12.9166C11.25 15.0567 12.9289 16.7916 15 16.7916Z" stroke="#F4F3F3" stroke-width="2" stroke-linecap="round" stroke-linejoin="round"/>
</svg>
