<svg width="320" height="598" viewBox="0 0 320 598" fill="none" xmlns="http://www.w3.org/2000/svg">
<path d="M154 583L160 589L166 583" stroke="#F4F3F3" stroke-width="2" stroke-linecap="round" stroke-linejoin="round"/>
<path d="M19.908 13.488C19.908 12.768 19.836 12.24 19.692 11.904C19.548 11.544 19.26 11.292 18.828 11.148C18.396 11.004 17.736 10.932 16.848 10.932C16.776 10.932 16.74 10.86 16.74 10.716C16.74 10.572 16.776 10.5 16.848 10.5L18.576 10.536C19.728 10.584 20.748 10.608 21.636 10.608C22.284 10.608 23.16 10.584 24.264 10.536L26.244 10.5C26.316 10.5 26.352 10.572 26.352 10.716C26.352 10.86 26.316 10.932 26.244 10.932C25.38 10.932 24.744 11.004 24.336 11.148C23.928 11.268 23.652 11.496 23.508 11.832C23.364 12.168 23.292 12.696 23.292 13.416V30.084C23.292 30.804 23.364 31.344 23.508 31.704C23.652 32.04 23.928 32.268 24.336 32.388C24.744 32.508 25.38 32.568 26.244 32.568C26.316 32.568 26.352 32.64 26.352 32.784C26.352 32.928 26.316 33 26.244 33C25.428 33 24.768 32.988 24.264 32.964L21.636 32.928L18.576 32.964C18.144 32.988 17.568 33 16.848 33C16.776 33 16.74 32.928 16.74 32.784C16.74 32.64 16.776 32.568 16.848 32.568C17.76 32.568 18.42 32.508 18.828 32.388C19.26 32.268 19.548 32.04 19.692 31.704C19.836 31.344 19.908 30.804 19.908 30.084V13.488ZM5.688 20.832H21.456V21.768H5.688V20.832ZM4.104 13.416C4.104 12.696 4.032 12.168 3.888 11.832C3.744 11.496 3.468 11.268 3.06 11.148C2.652 11.004 2.028 10.932 1.188 10.932C1.14 10.932 1.116 10.86 1.116 10.716C1.116 10.572 1.14 10.5 1.188 10.5L3.096 10.536C4.2 10.584 5.064 10.608 5.688 10.608C6.528 10.608 7.524 10.584 8.676 10.536L10.548 10.5C10.596 10.5 10.62 10.572 10.62 10.716C10.62 10.86 10.596 10.932 10.548 10.932C9.684 10.932 9.036 11.004 8.604 11.148C8.196 11.292 7.908 11.544 7.74 11.904C7.596 12.24 7.524 12.768 7.524 13.488V30.084C7.524 30.804 7.596 31.344 7.74 31.704C7.884 32.04 8.16 32.268 8.568 32.388C9 32.508 9.66 32.568 10.548 32.568C10.596 32.568 10.62 32.64 10.62 32.784C10.62 32.928 10.596 33 10.548 33C9.732 33 9.096 32.988 8.64 32.964L5.688 32.928L3.06 32.964C2.604 32.988 1.968 33 1.152 33C1.104 33 1.08 32.928 1.08 32.784C1.08 32.64 1.104 32.568 1.152 32.568C2.016 32.568 2.652 32.508 3.06 32.388C3.468 32.268 3.744 32.04 3.888 31.704C4.032 31.344 4.104 30.804 4.104 30.084V13.416ZM30.8059 33.324C30.6859 33.324 30.5659 33.3 30.4459 33.252C30.3499 33.228 30.3019 33.192 30.3019 33.144V22.02C30.3019 21.3 30.2539 20.772 30.1579 20.436C30.0619 20.076 29.8699 19.836 29.5819 19.716C29.2939 19.596 28.8499 19.536 28.2499 19.536C28.2019 19.536 28.1779 19.464 28.1779 19.32C28.1779 19.176 28.2019 19.104 28.2499 19.104C28.8019 19.104 29.2339 19.116 29.5459 19.14L31.7059 19.176L34.3339 19.14C34.5979 19.116 34.9219 19.104 35.3059 19.104C35.3779 19.104 35.4139 19.176 35.4139 19.32C35.4139 19.464 35.3779 19.536 35.3059 19.536C34.6819 19.536 34.2259 19.608 33.9379 19.752C33.6499 19.872 33.4459 20.1 33.3259 20.436C33.2299 20.772 33.1819 21.3 33.1819 22.02V30.372L31.9579 31.128L42.1459 18.96C42.2179 18.84 42.3499 18.78 42.5419 18.78C42.8539 18.78 43.0099 18.84 43.0099 18.96V30.084C43.0099 30.804 43.0579 31.344 43.1539 31.704C43.2739 32.04 43.4779 32.268 43.7659 32.388C44.0539 32.508 44.4979 32.568 45.0979 32.568C45.1459 32.568 45.1699 32.64 45.1699 32.784C45.1699 32.928 45.1459 33 45.0979 33C44.4259 33 43.9099 32.988 43.5499 32.964L41.6059 32.928L39.5539 32.964C39.1699 32.988 38.6539 33 38.0059 33C37.9579 33 37.9339 32.928 37.9339 32.784C37.9339 32.64 37.9579 32.568 38.0059 32.568C38.6299 32.568 39.0859 32.508 39.3739 32.388C39.6619 32.268 39.8539 32.04 39.9499 31.704C40.0699 31.344 40.1299 30.804 40.1299 30.084V21.552L41.4979 20.832L31.1659 33.18C31.0939 33.276 30.9739 33.324 30.8059 33.324ZM46.7421 33C46.6701 33 46.6341 32.928 46.6341 32.784C46.6341 32.64 46.6701 32.568 46.7421 32.568C47.3661 32.568 47.8221 32.508 48.1101 32.388C48.3981 32.268 48.5901 32.04 48.6861 31.704C48.7821 31.344 48.8301 30.804 48.8301 30.084V22.02C48.8301 21.3 48.7821 20.772 48.6861 20.436C48.5901 20.076 48.3981 19.836 48.1101 19.716C47.8221 19.596 47.3781 19.536 46.7781 19.536C46.7301 19.536 46.7061 19.464 46.7061 19.32C46.7061 19.176 46.7301 19.104 46.7781 19.104C47.4261 19.104 47.9301 19.116 48.2901 19.14L50.3421 19.176L52.6101 19.14C52.9941 19.116 53.5341 19.104 54.2301 19.104C54.2781 19.104 54.3021 19.176 54.3021 19.32C54.3021 19.464 54.2781 19.536 54.2301 19.536C53.5101 19.536 52.9701 19.608 52.6101 19.752C52.2741 19.872 52.0461 20.112 51.9261 20.472C51.8061 20.808 51.7461 21.348 51.7461 22.092V30.084C51.7461 30.804 51.7941 31.344 51.8901 31.704C52.0101 32.04 52.2021 32.268 52.4661 32.388C52.7541 32.508 53.1981 32.568 53.7981 32.568C53.8701 32.568 53.9061 32.64 53.9061 32.784C53.9061 32.928 53.8701 33 53.7981 33C53.1501 33 52.6461 32.988 52.2861 32.964L50.3421 32.928L48.2901 32.964C47.9301 32.988 47.4141 33 46.7421 33ZM58.7301 33C58.5141 33 58.3221 32.952 58.1541 32.856C58.0101 32.736 57.7701 32.448 57.4341 31.992C57.1221 31.512 56.6301 30.696 55.9581 29.544C55.3341 28.536 54.8421 27.804 54.4821 27.348C54.1221 26.868 53.7621 26.544 53.4021 26.376C53.0421 26.184 52.5741 26.088 51.9981 26.088C51.5901 26.088 51.1101 26.124 50.5581 26.196L50.5221 25.548C51.7701 25.452 52.8141 25.404 53.6541 25.404C54.6621 25.404 55.4301 25.488 55.9581 25.656C56.4861 25.824 56.9421 26.136 57.3261 26.592C57.7341 27.024 58.2741 27.768 58.9461 28.824L59.6301 29.94C60.2301 30.924 60.7341 31.608 61.1421 31.992C61.5501 32.352 62.1381 32.544 62.9061 32.568C62.9541 32.568 62.9781 32.64 62.9781 32.784C62.9781 32.928 62.9541 33 62.9061 33H58.7301ZM53.6541 25.404C53.9661 25.404 54.2661 25.212 54.5541 24.828C54.8421 24.444 55.0941 24.012 55.3101 23.532C56.2221 21.708 57.0021 20.46 57.6501 19.788C58.2981 19.092 59.0181 18.744 59.8101 18.744C60.4341 18.744 60.9021 18.9 61.2141 19.212C61.5501 19.5 61.7181 19.884 61.7181 20.364C61.7181 20.844 61.5621 21.24 61.2501 21.552C60.9621 21.864 60.5541 22.02 60.0261 22.02C59.7141 22.02 59.3661 21.924 58.9821 21.732C58.9341 21.708 58.8261 21.66 58.6581 21.588C58.4901 21.516 58.2981 21.48 58.0821 21.48C57.7461 21.48 57.4101 21.672 57.0741 22.056C56.7621 22.416 56.4021 22.992 55.9941 23.784C55.6101 24.552 55.2261 25.128 54.8421 25.512C54.4821 25.896 54.0861 26.088 53.6541 26.088V25.404ZM66.2434 33.324C66.1234 33.324 66.0034 33.3 65.8834 33.252C65.7874 33.228 65.7394 33.192 65.7394 33.144V22.02C65.7394 21.3 65.6914 20.772 65.5954 20.436C65.4994 20.076 65.3074 19.836 65.0194 19.716C64.7314 19.596 64.2874 19.536 63.6874 19.536C63.6394 19.536 63.6154 19.464 63.6154 19.32C63.6154 19.176 63.6394 19.104 63.6874 19.104C64.2394 19.104 64.6714 19.116 64.9834 19.14L67.1434 19.176L69.7714 19.14C70.0354 19.116 70.3594 19.104 70.7434 19.104C70.8154 19.104 70.8514 19.176 70.8514 19.32C70.8514 19.464 70.8154 19.536 70.7434 19.536C70.1194 19.536 69.6634 19.608 69.3754 19.752C69.0874 19.872 68.8834 20.1 68.7634 20.436C68.6674 20.772 68.6194 21.3 68.6194 22.02V30.372L67.3954 31.128L77.5834 18.96C77.6554 18.84 77.7874 18.78 77.9794 18.78C78.2914 18.78 78.4474 18.84 78.4474 18.96V30.084C78.4474 30.804 78.4954 31.344 78.5914 31.704C78.7114 32.04 78.9154 32.268 79.2034 32.388C79.4914 32.508 79.9354 32.568 80.5354 32.568C80.5834 32.568 80.6074 32.64 80.6074 32.784C80.6074 32.928 80.5834 33 80.5354 33C79.8634 33 79.3474 32.988 78.9874 32.964L77.0434 32.928L74.9914 32.964C74.6074 32.988 74.0914 33 73.4434 33C73.3954 33 73.3714 32.928 73.3714 32.784C73.3714 32.64 73.3954 32.568 73.4434 32.568C74.0674 32.568 74.5234 32.508 74.8114 32.388C75.0994 32.268 75.2914 32.04 75.3874 31.704C75.5074 31.344 75.5674 30.804 75.5674 30.084V21.552L76.9354 20.832L66.6034 33.18C66.5314 33.276 66.4114 33.324 66.2434 33.324ZM85.3476 33C85.2756 33 85.2396 32.928 85.2396 32.784C85.2396 32.64 85.2756 32.568 85.3476 32.568C85.9716 32.568 86.4276 32.508 86.7156 32.388C87.0036 32.268 87.1956 32.04 87.2916 31.704C87.3876 31.344 87.4356 30.804 87.4356 30.084V22.092C87.4356 21.204 87.3516 20.604 87.1836 20.292C87.0396 19.98 86.7156 19.824 86.2116 19.824C85.3476 19.824 84.6516 20.124 84.1236 20.724C83.5956 21.324 83.1636 22.344 82.8276 23.784C82.8036 23.832 82.7196 23.856 82.5756 23.856C82.4556 23.856 82.3956 23.832 82.3956 23.784L82.3596 18.42C82.3596 18.3 82.4316 18.24 82.5756 18.24C82.7196 18.24 82.7916 18.3 82.7916 18.42C82.7916 18.732 83.2476 18.936 84.1596 19.032C85.0716 19.104 86.6796 19.14 88.9836 19.14C91.1676 19.14 92.7156 19.104 93.6276 19.032C94.5396 18.936 94.9956 18.732 94.9956 18.42C94.9956 18.3 95.0676 18.24 95.2116 18.24C95.3556 18.24 95.4276 18.3 95.4276 18.42L95.3916 23.784C95.3916 23.832 95.3196 23.856 95.1756 23.856C95.0316 23.856 94.9596 23.832 94.9596 23.784C94.6236 22.344 94.1796 21.324 93.6276 20.724C93.0996 20.124 92.4156 19.824 91.5756 19.824C91.0716 19.824 90.7356 19.98 90.5676 20.292C90.4236 20.58 90.3516 21.18 90.3516 22.092V30.084C90.3516 30.804 90.3996 31.344 90.4956 31.704C90.6156 32.04 90.8076 32.268 91.0716 32.388C91.3596 32.508 91.8036 32.568 92.4036 32.568C92.4756 32.568 92.5116 32.64 92.5116 32.784C92.5116 32.928 92.4756 33 92.4036 33C91.7556 33 91.2516 32.988 90.8916 32.964L88.9476 32.928L86.8956 32.964C86.5356 32.988 86.0196 33 85.3476 33ZM107.81 33.216C107.714 33.264 107.606 33.288 107.486 33.288C107.054 33.288 106.658 33 106.298 32.424C105.938 31.824 105.758 31.032 105.758 30.048V23.712C105.758 22.224 105.602 21.144 105.29 20.472C105.002 19.776 104.534 19.428 103.886 19.428C103.094 19.428 102.518 19.728 102.158 20.328C101.822 20.904 101.618 21.552 101.546 22.272C101.402 23.496 100.79 24.108 99.7104 24.108C99.1824 24.108 98.7864 23.988 98.5224 23.748C98.2824 23.508 98.1624 23.208 98.1624 22.848C98.1624 22.176 98.5584 21.528 99.3504 20.904C100.166 20.256 101.138 19.74 102.266 19.356C103.418 18.948 104.426 18.744 105.29 18.744C106.322 18.744 107.138 19.068 107.738 19.716C108.362 20.364 108.674 21.336 108.674 22.632V29.112C108.674 30.624 109.142 31.38 110.078 31.38C110.438 31.38 110.87 31.272 111.374 31.056H111.446C111.542 31.056 111.602 31.116 111.626 31.236C111.65 31.332 111.614 31.404 111.518 31.452L107.81 33.216ZM101.042 33.252C100.058 33.252 99.3144 33.024 98.8104 32.568C98.3064 32.112 98.0544 31.488 98.0544 30.696C98.0544 30.048 98.2224 29.52 98.5584 29.112C98.9184 28.704 99.3624 28.38 99.8904 28.14C100.418 27.876 101.21 27.552 102.266 27.168L106.118 25.728L106.226 26.268L103.598 27.384C102.95 27.648 102.434 27.936 102.05 28.248C101.666 28.56 101.474 29.028 101.474 29.652C101.474 30.228 101.654 30.684 102.014 31.02C102.398 31.356 102.842 31.524 103.346 31.524C103.802 31.524 104.27 31.38 104.75 31.092L106.694 29.796L106.73 30.336L104.174 32.136C103.598 32.544 103.07 32.832 102.59 33C102.134 33.168 101.618 33.252 101.042 33.252ZM12.996 58.028C12.996 56.972 12.732 56.144 12.204 55.544C11.7 54.944 11.028 54.644 10.188 54.644C8.724 54.644 7.992 55.604 7.992 57.524C7.992 59.948 8.988 62.48 10.98 65.12C12.972 67.76 15.444 70.196 18.396 72.428C19.98 73.604 21.408 74.552 22.68 75.272C23.952 75.968 24.972 76.4 25.74 76.568C25.836 76.592 25.872 76.676 25.848 76.82C25.848 76.94 25.812 77 25.74 77H20.556C19.524 77 17.592 75.848 14.76 73.544C12.984 72.128 11.292 70.568 9.684 68.864C8.1 67.136 6.9 65.504 6.084 63.968C5.748 63.272 5.484 62.624 5.292 62.024C5.124 61.4 5.04 60.752 5.04 60.08C5.04 58.88 5.304 57.8 5.832 56.84C6.384 55.88 7.152 55.124 8.136 54.572C9.144 54.02 10.308 53.744 11.628 53.744C12.996 53.744 14.1 54.044 14.94 54.644C15.804 55.244 16.236 56.144 16.236 57.344C16.236 58.256 15.996 59.084 15.516 59.828C15.036 60.572 14.436 61.22 13.716 61.772C13.02 62.324 12.084 62.996 10.908 63.788C9.708 64.58 8.748 65.264 8.028 65.84C7.332 66.416 6.732 67.088 6.228 67.856C5.748 68.624 5.508 69.476 5.508 70.412C5.508 71.372 5.772 72.284 6.3 73.148C6.828 73.988 7.584 74.66 8.568 75.164C9.552 75.668 10.68 75.92 11.952 75.92C13.992 75.92 15.564 75.236 16.668 73.868C17.796 72.5 18.36 70.676 18.36 68.396C18.36 67.172 18.144 66.284 17.712 65.732C17.304 65.156 16.584 64.868 15.552 64.868C15.504 64.868 15.468 64.796 15.444 64.652C15.444 64.508 15.48 64.436 15.552 64.436L23.76 64.4C23.856 64.4 23.904 64.472 23.904 64.616C23.904 64.76 23.856 64.832 23.76 64.832C23.016 64.832 22.452 64.916 22.068 65.084C21.708 65.228 21.444 65.468 21.276 65.804C21.108 66.116 20.916 66.632 20.7 67.352C20.22 69.08 19.608 70.664 18.864 72.104C18.144 73.52 17.016 74.768 15.48 75.848C13.968 76.904 12 77.432 9.576 77.432C7.968 77.432 6.624 77.192 5.544 76.712C4.464 76.208 3.66 75.56 3.132 74.768C2.604 73.976 2.34 73.124 2.34 72.212C2.34 71.324 2.568 70.508 3.024 69.764C3.48 68.996 4.044 68.312 4.716 67.712C5.412 67.112 6.324 66.392 7.452 65.552C8.676 64.64 9.648 63.86 10.368 63.212C11.112 62.54 11.736 61.772 12.24 60.908C12.744 60.044 12.996 59.084 12.996 58.028ZM52.7529 77C52.4169 77 52.1169 76.904 51.8529 76.712C51.6129 76.52 51.1929 76.028 50.5929 75.236C49.9929 74.444 48.9729 73.016 47.5329 70.952L46.8849 70.016C45.9249 68.648 45.2169 67.7 44.7609 67.172C44.3289 66.62 43.8729 66.236 43.3929 66.02C42.9129 65.78 42.2769 65.66 41.4849 65.66C41.1969 65.66 40.9209 65.672 40.6569 65.696C40.4169 65.72 40.2009 65.744 40.0089 65.768L39.9729 65.12C41.5569 65.048 42.8169 65.012 43.7529 65.012C44.9049 65.012 45.8049 65.144 46.4529 65.408C47.1009 65.648 47.7129 66.092 48.2889 66.74C48.8649 67.388 49.7649 68.552 50.9889 70.232C52.2129 71.936 53.1249 73.184 53.7249 73.976C54.3489 74.744 54.9969 75.368 55.6689 75.848C56.3649 76.304 57.1209 76.544 57.9369 76.568C58.0089 76.568 58.0449 76.64 58.0449 76.784C58.0449 76.928 58.0089 77 57.9369 77H52.7529ZM34.9689 77C34.8969 77 34.8609 76.928 34.8609 76.784C34.8609 76.64 34.8969 76.568 34.9689 76.568C35.8329 76.568 36.4569 76.508 36.8409 76.388C37.2489 76.268 37.5249 76.04 37.6689 75.704C37.8129 75.344 37.8849 74.804 37.8849 74.084V57.416C37.8849 56.696 37.8129 56.168 37.6689 55.832C37.5249 55.496 37.2489 55.268 36.8409 55.148C36.4569 55.004 35.8449 54.932 35.0049 54.932C34.9329 54.932 34.8969 54.86 34.8969 54.716C34.8969 54.572 34.9329 54.5 35.0049 54.5L36.8769 54.536C37.9329 54.584 38.7849 54.608 39.4329 54.608C40.2009 54.608 41.1609 54.584 42.3129 54.536L44.2209 54.5C44.2689 54.5 44.2929 54.572 44.2929 54.716C44.2929 54.86 44.2689 54.932 44.2209 54.932C43.3809 54.932 42.7569 55.004 42.3489 55.148C41.9409 55.292 41.6649 55.544 41.5209 55.904C41.3769 56.24 41.3049 56.768 41.3049 57.488V74.084C41.3049 74.804 41.3769 75.344 41.5209 75.704C41.6649 76.04 41.9289 76.268 42.3129 76.388C42.7209 76.508 43.3569 76.568 44.2209 76.568C44.2689 76.568 44.2929 76.64 44.2929 76.784C44.2929 76.928 44.2689 77 44.2209 77C43.4049 77 42.7569 76.988 42.2769 76.964L39.4329 76.928L36.8409 76.964C36.3849 76.988 35.7609 77 34.9689 77ZM43.8249 65.264L47.9649 59.504C48.9729 58.112 49.4769 57.008 49.4769 56.192C49.4769 55.784 49.3329 55.472 49.0449 55.256C48.7809 55.04 48.3969 54.932 47.8929 54.932C47.8449 54.932 47.8209 54.86 47.8209 54.716C47.8209 54.572 47.8449 54.5 47.8929 54.5L49.5129 54.536C50.5209 54.584 51.4329 54.608 52.2489 54.608C53.1369 54.608 54.0609 54.584 55.0209 54.536L56.4609 54.5C56.5329 54.5 56.5689 54.572 56.5689 54.716C56.5689 54.86 56.5329 54.932 56.4609 54.932C55.3569 54.932 54.2049 55.292 53.0049 56.012C51.8049 56.732 50.7129 57.716 49.7289 58.964L44.4729 65.588L43.8249 65.264ZM65.4818 77.432C63.9218 77.432 62.5898 77.096 61.4858 76.424C60.4058 75.728 59.6018 74.84 59.0738 73.76C58.5458 72.656 58.2817 71.504 58.2817 70.304C58.2817 68.792 58.6898 67.472 59.5058 66.344C60.3218 65.192 61.3658 64.316 62.6378 63.716C63.9338 63.092 65.2418 62.78 66.5618 62.78C67.6898 62.78 68.6978 63.008 69.5858 63.464C70.4978 63.92 70.9538 64.532 70.9538 65.3C70.9538 65.708 70.7978 66.056 70.4858 66.344C70.1978 66.632 69.7778 66.776 69.2258 66.776C68.2898 66.776 67.6298 66.248 67.2458 65.192C67.0298 64.592 66.7778 64.172 66.4898 63.932C66.2258 63.668 65.8058 63.536 65.2298 63.536C64.1018 63.536 63.2018 64.052 62.5298 65.084C61.8818 66.092 61.5578 67.448 61.5578 69.152C61.5578 71.144 62.0138 72.764 62.9258 74.012C63.8618 75.236 65.3138 75.848 67.2818 75.848C67.9298 75.848 68.5178 75.764 69.0458 75.596C69.5978 75.428 70.1858 75.164 70.8098 74.804H70.8458C70.9178 74.804 70.9778 74.84 71.0258 74.912C71.0978 74.984 71.1098 75.044 71.0618 75.092C70.1738 75.884 69.2978 76.472 68.4338 76.856C67.5698 77.24 66.5858 77.432 65.4818 77.432ZM80.28 77.432C78.816 77.432 77.544 77.108 76.464 76.46C75.408 75.812 74.592 74.96 74.016 73.904C73.464 72.848 73.188 71.708 73.188 70.484C73.188 69.068 73.536 67.772 74.232 66.596C74.928 65.42 75.876 64.496 77.076 63.824C78.3 63.128 79.656 62.78 81.144 62.78C82.584 62.78 83.688 63.128 84.456 63.824C85.248 64.52 85.644 65.552 85.644 66.92C85.644 67.28 85.608 67.544 85.536 67.712C85.488 67.88 85.392 67.964 85.248 67.964H82.296C82.416 64.988 81.6 63.5 79.848 63.5C78.768 63.5 77.916 63.992 77.292 64.976C76.692 65.96 76.392 67.292 76.392 68.972C76.392 71.084 76.884 72.764 77.868 74.012C78.852 75.236 80.244 75.848 82.044 75.848C82.716 75.848 83.28 75.764 83.736 75.596C84.192 75.428 84.792 75.152 85.536 74.768L85.608 74.732C85.656 74.732 85.704 74.78 85.752 74.876C85.824 74.972 85.836 75.044 85.788 75.092C84.924 75.908 84.048 76.508 83.16 76.892C82.272 77.252 81.312 77.432 80.28 77.432ZM75.312 67.388L83.304 67.244V67.964L75.348 68L75.312 67.388ZM91.5503 69.656H101.234V70.448H91.5503V69.656ZM90.1463 66.02C90.1463 65.3 90.0863 64.772 89.9663 64.436C89.8703 64.076 89.6783 63.836 89.3903 63.716C89.1263 63.596 88.6943 63.536 88.0942 63.536C88.0223 63.536 87.9863 63.464 87.9863 63.32C87.9863 63.176 88.0223 63.104 88.0942 63.104C88.7423 63.104 89.2463 63.116 89.6063 63.14L91.6582 63.176L93.6023 63.14C93.9863 63.116 94.4903 63.104 95.1143 63.104C95.1623 63.104 95.1863 63.176 95.1863 63.32C95.1863 63.464 95.1623 63.536 95.1143 63.536C94.5143 63.536 94.0703 63.608 93.7823 63.752C93.4943 63.896 93.2903 64.148 93.1703 64.508C93.0743 64.844 93.0263 65.372 93.0263 66.092V74.084C93.0263 74.804 93.0743 75.344 93.1703 75.704C93.2903 76.04 93.4943 76.268 93.7823 76.388C94.0703 76.508 94.5143 76.568 95.1143 76.568C95.1623 76.568 95.1863 76.64 95.1863 76.784C95.1863 76.928 95.1623 77 95.1143 77C94.4663 77 93.9503 76.988 93.5663 76.964L91.6582 76.928L89.6063 76.964C89.2463 76.988 88.7303 77 88.0583 77C87.9863 77 87.9503 76.928 87.9503 76.784C87.9503 76.64 87.9863 76.568 88.0583 76.568C88.6583 76.568 89.1023 76.508 89.3903 76.388C89.6783 76.268 89.8703 76.04 89.9663 75.704C90.0863 75.344 90.1463 74.804 90.1463 74.084V66.02ZM99.8303 66.02C99.8303 65.3 99.7703 64.772 99.6503 64.436C99.5543 64.076 99.3623 63.836 99.0743 63.716C98.8103 63.596 98.3783 63.536 97.7783 63.536C97.7063 63.536 97.6703 63.464 97.6703 63.32C97.6703 63.176 97.7063 63.104 97.7783 63.104C98.4263 63.104 98.9303 63.116 99.2903 63.14L101.342 63.176L103.286 63.14C103.67 63.116 104.174 63.104 104.798 63.104C104.846 63.104 104.87 63.176 104.87 63.32C104.87 63.464 104.846 63.536 104.798 63.536C104.198 63.536 103.754 63.608 103.466 63.752C103.178 63.896 102.974 64.148 102.854 64.508C102.758 64.844 102.71 65.372 102.71 66.092V74.084C102.71 74.804 102.758 75.344 102.854 75.704C102.974 76.04 103.178 76.268 103.466 76.388C103.754 76.508 104.198 76.568 104.798 76.568C104.846 76.568 104.87 76.64 104.87 76.784C104.87 76.928 104.846 77 104.798 77C104.15 77 103.634 76.988 103.25 76.964L101.342 76.928L99.2543 76.964C98.8943 76.988 98.3903 77 97.7423 77C97.6703 77 97.6343 76.928 97.6343 76.784C97.6343 76.64 97.6703 76.568 97.7423 76.568C98.3423 76.568 98.7863 76.508 99.0743 76.388C99.3623 76.268 99.5543 76.04 99.6503 75.704C99.7703 75.344 99.8303 74.804 99.8303 74.084V66.02ZM109.31 77.324C109.19 77.324 109.07 77.3 108.95 77.252C108.854 77.228 108.806 77.192 108.806 77.144V66.02C108.806 65.3 108.758 64.772 108.662 64.436C108.566 64.076 108.374 63.836 108.086 63.716C107.798 63.596 107.354 63.536 106.754 63.536C106.706 63.536 106.682 63.464 106.682 63.32C106.682 63.176 106.706 63.104 106.754 63.104C107.306 63.104 107.738 63.116 108.05 63.14L110.21 63.176L112.838 63.14C113.102 63.116 113.426 63.104 113.81 63.104C113.882 63.104 113.918 63.176 113.918 63.32C113.918 63.464 113.882 63.536 113.81 63.536C113.186 63.536 112.73 63.608 112.442 63.752C112.154 63.872 111.95 64.1 111.83 64.436C111.734 64.772 111.686 65.3 111.686 66.02V74.372L110.462 75.128L120.65 62.96C120.722 62.84 120.854 62.78 121.046 62.78C121.358 62.78 121.514 62.84 121.514 62.96V74.084C121.514 74.804 121.562 75.344 121.658 75.704C121.778 76.04 121.982 76.268 122.27 76.388C122.558 76.508 123.002 76.568 123.602 76.568C123.65 76.568 123.674 76.64 123.674 76.784C123.674 76.928 123.65 77 123.602 77C122.93 77 122.414 76.988 122.054 76.964L120.11 76.928L118.058 76.964C117.674 76.988 117.158 77 116.51 77C116.462 77 116.438 76.928 116.438 76.784C116.438 76.64 116.462 76.568 116.51 76.568C117.134 76.568 117.59 76.508 117.878 76.388C118.166 76.268 118.358 76.04 118.454 75.704C118.574 75.344 118.634 74.804 118.634 74.084V65.552L120.002 64.832L109.67 77.18C109.598 77.276 109.478 77.324 109.31 77.324ZM138.71 76.568C138.782 76.568 138.818 76.64 138.818 76.784C138.818 76.928 138.782 77 138.71 77C138.158 77 137.726 76.988 137.414 76.964L135.614 76.928L133.634 76.964C133.322 76.988 132.866 77 132.266 77C132.218 77 132.194 76.928 132.194 76.784C132.194 76.64 132.218 76.568 132.266 76.568C132.794 76.568 133.178 76.508 133.418 76.388C133.658 76.268 133.814 76.04 133.886 75.704C133.958 75.368 133.994 74.828 133.994 74.084V70.484L135.038 70.556C133.982 70.556 133.082 70.796 132.338 71.276C131.618 71.732 130.898 72.668 130.178 74.084L129.602 75.236C129.266 75.932 129.002 76.4 128.81 76.64C128.642 76.88 128.414 77 128.126 77H124.274C124.226 77 124.202 76.928 124.202 76.784C124.202 76.64 124.226 76.568 124.274 76.568C124.97 76.592 125.522 76.364 125.93 75.884C126.338 75.404 126.662 74.924 126.902 74.444C127.142 73.94 127.298 73.616 127.37 73.472C127.922 72.44 128.642 71.696 129.53 71.24C130.442 70.76 131.57 70.52 132.914 70.52L133.166 70.628C129.014 70.628 126.938 69.392 126.938 66.92C126.938 65.672 127.418 64.712 128.378 64.04C129.362 63.344 130.622 62.996 132.158 62.996C132.734 62.996 133.322 63.032 133.922 63.104C134.69 63.152 135.254 63.176 135.614 63.176L137.378 63.14C137.69 63.116 138.122 63.104 138.674 63.104C138.746 63.104 138.782 63.176 138.782 63.32C138.782 63.464 138.746 63.536 138.674 63.536C138.194 63.536 137.822 63.608 137.558 63.752C137.318 63.872 137.15 64.1 137.054 64.436C136.958 64.772 136.91 65.3 136.91 66.02V74.084C136.91 75.116 137.03 75.788 137.27 76.1C137.51 76.412 137.99 76.568 138.71 76.568ZM129.962 66.128C129.962 67.28 130.226 68.24 130.754 69.008C131.306 69.752 132.074 70.124 133.058 70.124C133.898 70.124 134.594 70.064 135.146 69.944L133.994 70.304V66.092C133.994 65.012 133.886 64.304 133.67 63.968C133.454 63.608 133.01 63.428 132.338 63.428C131.522 63.428 130.922 63.644 130.538 64.076C130.154 64.508 129.962 65.192 129.962 66.128Z" fill="#F4F3F3"/>
<path d="M200.984 538V522.16L202.016 523.288H197.192V521.2H203.36V538H200.984ZM212.171 538.192C210.987 538.192 209.835 538.008 208.715 537.64C207.611 537.272 206.707 536.776 206.003 536.152L207.107 534.256C207.667 534.784 208.395 535.216 209.291 535.552C210.187 535.888 211.147 536.056 212.171 536.056C213.419 536.056 214.387 535.792 215.075 535.264C215.779 534.72 216.131 533.992 216.131 533.08C216.131 532.2 215.795 531.496 215.123 530.968C214.467 530.424 213.419 530.152 211.979 530.152H210.635V528.472L215.627 522.328L215.963 523.288H206.771V521.2H217.859V522.832L212.891 528.952L211.643 528.208H212.435C214.467 528.208 215.987 528.664 216.995 529.576C218.019 530.488 218.531 531.648 218.531 533.056C218.531 534 218.299 534.864 217.835 535.648C217.371 536.432 216.667 537.056 215.723 537.52C214.795 537.968 213.611 538.192 212.171 538.192ZM222.353 538.144C221.905 538.144 221.521 537.992 221.201 537.688C220.881 537.368 220.721 536.968 220.721 536.488C220.721 536.008 220.881 535.616 221.201 535.312C221.521 535.008 221.905 534.856 222.353 534.856C222.785 534.856 223.153 535.008 223.457 535.312C223.777 535.616 223.937 536.008 223.937 536.488C223.937 536.968 223.777 537.368 223.457 537.688C223.153 537.992 222.785 538.144 222.353 538.144ZM232.789 538.192C231.477 538.192 230.301 537.856 229.261 537.184C228.237 536.512 227.421 535.536 226.813 534.256C226.221 532.976 225.925 531.424 225.925 529.6C225.925 527.776 226.221 526.224 226.813 524.944C227.421 523.664 228.237 522.688 229.261 522.016C230.301 521.344 231.477 521.008 232.789 521.008C234.085 521.008 235.253 521.344 236.293 522.016C237.333 522.688 238.149 523.664 238.741 524.944C239.333 526.224 239.629 527.776 239.629 529.6C239.629 531.424 239.333 532.976 238.741 534.256C238.149 535.536 237.333 536.512 236.293 537.184C235.253 537.856 234.085 538.192 232.789 538.192ZM232.789 536.056C233.669 536.056 234.437 535.816 235.093 535.336C235.765 534.856 236.285 534.136 236.653 533.176C237.037 532.216 237.229 531.024 237.229 529.6C237.229 528.176 237.037 526.984 236.653 526.024C236.285 525.064 235.765 524.344 235.093 523.864C234.437 523.384 233.669 523.144 232.789 523.144C231.909 523.144 231.133 523.384 230.461 523.864C229.789 524.344 229.261 525.064 228.877 526.024C228.509 526.984 228.325 528.176 228.325 529.6C228.325 531.024 228.509 532.216 228.877 533.176C229.261 534.136 229.789 534.856 230.461 535.336C231.133 535.816 231.909 536.056 232.789 536.056ZM248.989 538.192C247.501 538.192 246.229 537.864 245.173 537.208C244.117 536.552 243.309 535.608 242.749 534.376C242.205 533.128 241.933 531.608 241.933 529.816C241.933 527.912 242.269 526.304 242.941 524.992C243.613 523.68 244.549 522.688 245.749 522.016C246.949 521.344 248.325 521.008 249.877 521.008C250.677 521.008 251.437 521.088 252.157 521.248C252.893 521.408 253.525 521.656 254.053 521.992L253.141 523.864C252.709 523.56 252.213 523.352 251.653 523.24C251.109 523.128 250.533 523.072 249.925 523.072C248.213 523.072 246.853 523.608 245.845 524.68C244.837 525.736 244.333 527.312 244.333 529.408C244.333 529.744 244.349 530.144 244.381 530.608C244.413 531.072 244.493 531.528 244.621 531.976L243.805 531.16C244.045 530.424 244.421 529.808 244.933 529.312C245.461 528.8 246.085 528.424 246.805 528.184C247.541 527.928 248.333 527.8 249.181 527.8C250.301 527.8 251.293 528.008 252.157 528.424C253.021 528.84 253.701 529.432 254.197 530.2C254.693 530.952 254.941 531.848 254.941 532.888C254.941 533.96 254.677 534.896 254.149 535.696C253.621 536.496 252.909 537.112 252.013 537.544C251.117 537.976 250.109 538.192 248.989 538.192ZM248.893 536.248C249.629 536.248 250.269 536.112 250.813 535.84C251.373 535.568 251.813 535.192 252.133 534.712C252.453 534.216 252.613 533.64 252.613 532.984C252.613 531.992 252.269 531.208 251.581 530.632C250.893 530.04 249.957 529.744 248.773 529.744C248.005 529.744 247.333 529.888 246.757 530.176C246.181 530.464 245.725 530.856 245.389 531.352C245.069 531.832 244.909 532.384 244.909 533.008C244.909 533.584 245.061 534.12 245.365 534.616C245.669 535.096 246.117 535.488 246.709 535.792C247.301 536.096 248.029 536.248 248.893 536.248ZM258.564 538.144C258.116 538.144 257.732 537.992 257.412 537.688C257.092 537.368 256.932 536.968 256.932 536.488C256.932 536.008 257.092 535.616 257.412 535.312C257.732 535.008 258.116 534.856 258.564 534.856C258.996 534.856 259.364 535.008 259.668 535.312C259.988 535.616 260.148 536.008 260.148 536.488C260.148 536.968 259.988 537.368 259.668 537.688C259.364 537.992 258.996 538.144 258.564 538.144ZM262.388 538V536.368L269.228 529.768C269.836 529.192 270.284 528.688 270.572 528.256C270.876 527.808 271.076 527.4 271.172 527.032C271.284 526.648 271.34 526.28 271.34 525.928C271.34 525.064 271.036 524.384 270.428 523.888C269.82 523.392 268.932 523.144 267.764 523.144C266.868 523.144 266.06 523.296 265.34 523.6C264.62 523.888 263.996 524.344 263.468 524.968L261.836 523.552C262.476 522.736 263.332 522.112 264.404 521.68C265.492 521.232 266.684 521.008 267.98 521.008C269.148 521.008 270.164 521.2 271.028 521.584C271.892 521.952 272.556 522.488 273.02 523.192C273.5 523.896 273.74 524.728 273.74 525.688C273.74 526.232 273.668 526.768 273.524 527.296C273.38 527.824 273.108 528.384 272.708 528.976C272.308 529.568 271.732 530.232 270.98 530.968L264.884 536.848L264.308 535.912H274.46V538H262.388ZM283.274 538.192C281.962 538.192 280.786 537.856 279.746 537.184C278.722 536.512 277.906 535.536 277.298 534.256C276.706 532.976 276.41 531.424 276.41 529.6C276.41 527.776 276.706 526.224 277.298 524.944C277.906 523.664 278.722 522.688 279.746 522.016C280.786 521.344 281.962 521.008 283.274 521.008C284.57 521.008 285.738 521.344 286.778 522.016C287.818 522.688 288.634 523.664 289.226 524.944C289.818 526.224 290.114 527.776 290.114 529.6C290.114 531.424 289.818 532.976 289.226 534.256C288.634 535.536 287.818 536.512 286.778 537.184C285.738 537.856 284.57 538.192 283.274 538.192ZM283.274 536.056C284.154 536.056 284.922 535.816 285.578 535.336C286.25 534.856 286.77 534.136 287.138 533.176C287.522 532.216 287.714 531.024 287.714 529.6C287.714 528.176 287.522 526.984 287.138 526.024C286.77 525.064 286.25 524.344 285.578 523.864C284.922 523.384 284.154 523.144 283.274 523.144C282.394 523.144 281.618 523.384 280.946 523.864C280.274 524.344 279.746 525.064 279.362 526.024C278.994 526.984 278.81 528.176 278.81 529.6C278.81 531.024 278.994 532.216 279.362 533.176C279.746 534.136 280.274 534.856 280.946 535.336C281.618 535.816 282.394 536.056 283.274 536.056ZM292.154 538V536.368L298.994 529.768C299.602 529.192 300.05 528.688 300.338 528.256C300.642 527.808 300.842 527.4 300.938 527.032C301.05 526.648 301.106 526.28 301.106 525.928C301.106 525.064 300.802 524.384 300.194 523.888C299.586 523.392 298.698 523.144 297.53 523.144C296.634 523.144 295.826 523.296 295.106 523.6C294.386 523.888 293.762 524.344 293.234 524.968L291.602 523.552C292.242 522.736 293.098 522.112 294.17 521.68C295.258 521.232 296.45 521.008 297.746 521.008C298.914 521.008 299.93 521.2 300.794 521.584C301.658 521.952 302.322 522.488 302.786 523.192C303.266 523.896 303.506 524.728 303.506 525.688C303.506 526.232 303.434 526.768 303.29 527.296C303.146 527.824 302.874 528.384 302.474 528.976C302.074 529.568 301.498 530.232 300.746 530.968L294.65 536.848L294.074 535.912H304.226V538H292.154ZM313.231 538.192C311.743 538.192 310.471 537.864 309.415 537.208C308.359 536.552 307.551 535.608 306.991 534.376C306.447 533.128 306.175 531.608 306.175 529.816C306.175 527.912 306.511 526.304 307.183 524.992C307.855 523.68 308.791 522.688 309.991 522.016C311.191 521.344 312.567 521.008 314.119 521.008C314.919 521.008 315.679 521.088 316.399 521.248C317.135 521.408 317.767 521.656 318.295 521.992L317.383 523.864C316.951 523.56 316.455 523.352 315.895 523.24C315.351 523.128 314.775 523.072 314.167 523.072C312.455 523.072 311.095 523.608 310.087 524.68C309.079 525.736 308.575 527.312 308.575 529.408C308.575 529.744 308.591 530.144 308.623 530.608C308.655 531.072 308.735 531.528 308.863 531.976L308.047 531.16C308.287 530.424 308.663 529.808 309.175 529.312C309.703 528.8 310.327 528.424 311.047 528.184C311.783 527.928 312.575 527.8 313.423 527.8C314.543 527.8 315.535 528.008 316.399 528.424C317.263 528.84 317.943 529.432 318.439 530.2C318.935 530.952 319.183 531.848 319.183 532.888C319.183 533.96 318.919 534.896 318.391 535.696C317.863 536.496 317.151 537.112 316.255 537.544C315.359 537.976 314.351 538.192 313.231 538.192ZM313.135 536.248C313.871 536.248 314.511 536.112 315.055 535.84C315.615 535.568 316.055 535.192 316.375 534.712C316.695 534.216 316.855 533.64 316.855 532.984C316.855 531.992 316.511 531.208 315.823 530.632C315.135 530.04 314.199 529.744 313.015 529.744C312.247 529.744 311.575 529.888 310.999 530.176C310.423 530.464 309.967 530.856 309.631 531.352C309.311 531.832 309.151 532.384 309.151 533.008C309.151 533.584 309.303 534.12 309.607 534.616C309.911 535.096 310.359 535.488 310.951 535.792C311.543 536.096 312.271 536.248 313.135 536.248Z" fill="#F4F3F3"/>
<path d="M74.735 255.255C70.825 255.938 67.8139 255.413 65.7019 253.68C63.5898 251.947 62.3251 249.908 61.9078 247.564C61.8352 247.156 61.7627 246.748 61.6901 246.34C61.6357 246.035 61.6327 245.72 61.6812 245.396C61.8693 241.685 63.3103 237.86 66.0042 233.921C68.68 229.881 72.6055 226.305 77.7809 223.194C81.9291 220.7 89.3217 219.929 96.9379 219.119C96.9379 219.119 105.527 218.529 107.621 218.374C108.489 218.309 108.304 217.19 109.222 215.653C111.183 212.367 113.03 208.734 114.761 204.754C116.596 200.755 118.394 196.552 120.156 192.146L117.223 192.658C116.297 192.82 115.311 192.939 114.263 193.017C107.073 193.748 100.924 192.877 95.8158 190.407C90.6897 187.834 87.5461 183.286 86.3849 176.762C86.2216 175.845 86.1098 174.919 86.0494 173.983C86.0919 173.03 86.0739 172.035 85.9954 170.998C85.9114 165.757 87.1195 160.922 89.6198 156.492C92.223 152.043 95.4405 148.066 99.2722 144.559C103.207 141.034 107.25 138.121 111.403 135.819C115.555 133.517 119.19 131.884 122.307 130.919L123.079 130.784C123.593 130.695 123.877 130.803 123.932 131.108C124.004 131.516 123.535 131.861 122.525 132.142C119.631 133.173 116.496 134.929 113.118 137.411C109.722 139.791 106.426 142.731 103.23 146.232C100.137 149.715 97.5459 153.636 95.4572 157.994C93.4533 162.233 92.457 166.769 92.4684 171.601C92.45 173.286 92.5678 174.842 92.8218 176.269C93.7834 181.671 96.3007 185.382 100.374 187.403C104.532 189.305 109.718 190.133 115.934 189.888C116.776 189.846 117.659 189.744 118.585 189.582L121.518 189.07L128.375 170.374C130.718 163.869 133.191 157.499 135.795 151.264C138.483 144.909 141.38 138.833 144.486 133.036C147.489 127.256 150.858 122.044 154.593 117.398C158.225 112.77 162.259 108.912 166.696 105.825C171.236 102.72 176.233 100.691 181.686 99.7385C185.184 99.1274 187.896 99.7573 189.82 101.628C191.745 103.499 192.97 105.559 193.496 108.515C193.496 108.515 193.813 110.088 193.813 110.342C193.813 110.872 193.807 111.809 193.813 112.439C193.697 120.131 192.011 127.94 188.753 135.866C185.599 143.773 181.246 151.207 175.695 158.167C170.041 165.145 163.358 171.41 155.646 176.961C148.02 182.392 139.797 186.56 130.978 189.467C128.556 194.935 126.207 199.917 123.931 204.413C121.654 208.909 115.908 217.408 114.068 220.778C117.318 221.156 122.971 224.496 127.406 225.898L136.8 229.062C140.026 229.975 141.559 230.349 144.573 231.189C147.606 232.131 150.698 233.114 153.851 234.14C157.005 235.166 159.855 235.982 162.403 236.587C165.744 237.475 168.988 238.117 172.135 238.513C175.404 238.993 178.427 238.991 181.205 238.506C183.263 238.146 185.163 237.499 186.907 236.564C188.529 235.545 189.434 233.18 189.622 229.468C189.828 225.859 189.56 221.965 188.816 217.786C188.308 214.932 187.585 212.063 186.647 209.179C185.71 206.295 184.654 203.642 183.48 201.22C183.323 200.932 183.347 200.77 183.553 200.734C183.777 200.8 184.297 201.34 185.114 202.353C187.74 205.783 190.312 208.907 192.83 211.725C195.432 214.424 197.05 217.556 197.685 221.124C197.812 221.837 197.845 222.62 197.785 223.471C197.827 224.304 197.818 225.147 197.757 225.998C197.472 228.57 196.216 231.049 193.989 233.435C191.779 235.923 189.7 237.652 187.751 238.623C185.118 239.924 182.361 240.826 179.48 241.329C174.746 242.156 169.578 242.323 163.973 241.831C158.471 241.32 153.13 240.519 147.949 239.427C142.872 238.317 134.858 236.512 134.858 236.512C134.858 236.512 124.269 232.99 124.536 233.02C124.536 233.02 112.992 228.743 108.937 228.61C105.971 232.807 106.084 232.596 101.901 237.11C97.7182 241.624 93.2721 245.553 88.5628 248.898C83.8716 252.345 79.2623 254.464 74.735 255.255ZM132.567 185.879C139.582 182.972 146.492 178.875 153.296 173.588C160.184 168.181 166.328 162.168 171.728 155.55C177.128 148.931 181.511 141.965 184.877 134.651C188.243 127.337 189.954 120.259 190.009 113.419C190.012 113.13 190.032 112.651 190 112.474C189.928 112.066 189.864 111.71 189.81 111.404C189.501 109.671 188.724 108.283 187.477 107.24C186.333 106.178 184.527 105.863 182.057 106.295C179.897 106.672 177.581 107.97 175.112 110.188C172.369 112.664 169.549 115.889 166.649 119.864C163.852 123.82 161.01 128.415 158.122 133.649C155.131 138.901 152.186 144.407 149.286 150.169C146.404 156.032 143.55 162.048 140.722 168.217C137.877 174.284 135.158 180.172 132.567 185.879ZM74.9352 251.909C78.7423 251.244 82.4346 249.338 86.012 246.191C89.5895 243.044 93.0093 239.564 96.2359 235.454C100.305 231.014 101.306 229.975 103.991 226.558C101.901 226.237 99.7784 226.117 97.8901 226.237C92.0874 226.605 86.8742 226.598 81.9291 228.617C77.0868 230.619 73.116 233.047 70.0168 235.9C66.9175 238.754 65.2284 241.781 64.9496 244.983C64.9011 245.307 64.9494 245.876 65.0946 246.692C65.3667 248.221 66.1957 249.6 67.5816 250.829C68.9855 252.16 71.4368 252.52 74.9352 251.909Z" fill="#F4F3F3" fill-opacity="0.8"/>
<path d="M197.311 345.871C191.446 346.895 186.383 346.466 182.123 344.582C177.759 342.717 174.074 339.893 171.066 336.109C168.161 332.308 165.877 327.82 164.214 322.645C163.736 321.152 163.3 319.599 162.907 317.986C162.514 316.374 162.172 314.752 161.882 313.121C161.682 312 161.492 310.929 161.31 309.91C161.111 308.789 161.023 307.701 161.047 306.646C160.479 301.07 160.462 295.608 160.995 290.26C161.51 284.81 162.452 279.969 163.821 275.736C166.176 268.703 169.349 261.791 173.338 254.998C177.431 248.188 182.104 241.959 187.358 236.312C192.51 230.683 198.039 225.986 203.947 222.222C209.94 218.338 215.971 215.865 222.042 214.805C230.068 213.403 236.09 214.453 240.108 217.955C244.127 221.457 246.671 226.215 247.741 232.229C248.213 234.879 248.446 237.676 248.439 240.619C248.433 243.563 248.23 246.594 247.83 249.712C250.033 251.954 251.836 254.635 253.24 257.752C254.625 260.768 255.617 263.958 256.216 267.322C256.742 270.278 256.951 273.237 256.841 276.198C256.835 279.142 256.535 281.927 255.941 284.553C253.84 293.012 250.667 300.818 246.423 307.97C242.264 315.003 237.521 321.138 232.195 326.378C226.783 331.737 221.026 336.053 214.925 339.326C208.945 342.683 203.073 344.864 197.311 345.871ZM201.161 341.572C205.792 340.764 210.352 338.968 214.844 336.187C219.335 333.406 223.593 329.614 227.619 324.812C231.542 320.028 235.12 314.201 238.353 307.331C241.688 300.442 244.456 292.445 246.654 283.338C247.55 280.028 248.319 276.005 248.962 271.269C249.689 266.413 249.698 261.997 248.991 258.022C248.646 256.085 248.15 254.49 247.502 253.237C246.915 256.493 246.249 259.604 245.504 262.572C244.741 265.438 243.957 267.887 243.151 269.919C239.446 279.499 235.998 287.248 232.807 293.165C229.72 299.065 226.666 303.96 223.645 307.85C221.048 311.142 217.961 314.361 214.383 317.508C210.806 320.655 207.407 323.613 204.187 326.383C203.454 327.036 203.273 326.91 203.642 326.005C204.011 325.1 204.459 324.338 204.986 323.721C209.714 318.691 214.193 312.864 218.425 306.24C222.638 299.513 226.462 292.382 229.894 284.846C233.309 277.208 236.07 269.474 238.177 261.645L238.296 260.52C238.61 259.309 238.901 257.367 239.168 254.693C239.435 252.019 239.483 249.015 239.315 245.681L236.319 244.944C234.872 244.566 233.377 244.512 231.834 244.781C231.422 244.853 231.02 244.976 230.626 245.15C230.215 245.222 229.803 245.293 229.392 245.365L224.589 246.992C223.699 247.358 223.49 247.079 223.962 246.156C224.453 245.335 225.143 244.741 226.033 244.376C226.341 244.322 226.753 244.25 227.267 244.16C227.764 243.968 228.32 243.818 228.938 243.711C230.07 243.513 231.323 243.399 232.696 243.369C234.07 243.339 235.532 243.505 237.081 243.865L239.405 244.404C239.357 242.942 239.258 241.488 239.106 240.043C238.937 238.496 238.726 237.009 238.472 235.582C237.855 232.116 236.923 228.969 235.677 226.138C234.43 223.308 232.821 221.12 230.848 219.573C228.857 217.924 226.369 217.36 223.385 217.881C217.109 218.977 211.404 221.498 206.271 225.442C201.241 229.368 196.743 234.2 192.778 239.937C188.728 245.794 185.268 252.284 182.398 259.406C179.613 266.409 177.285 273.594 175.413 280.963C173.542 288.331 172.403 295.046 171.997 301.107C171.694 307.151 171.968 312.568 172.821 317.358C173.202 319.499 173.668 321.519 174.218 323.42C174.872 325.303 175.61 327.065 176.433 328.708C179.041 333.823 182.502 337.475 186.817 339.664C191.235 341.835 196.017 342.471 201.161 341.572Z" fill="#F4F3F3" fill-opacity="0.8"/>
<path d="M102.778 440.727C100.72 441.086 98.8828 440.304 97.2671 438.379C95.6513 436.454 94.3322 434.109 93.3097 431.345C92.3054 428.683 91.6218 426.333 91.2589 424.294C90.3155 418.994 90.0954 412.99 90.5987 406.281C90.9991 399.59 91.8444 392.716 93.1346 385.659C94.5276 378.585 96.2385 371.507 98.267 364.427C100.314 357.448 102.442 350.928 104.652 344.867C106.862 338.806 108.993 333.494 111.046 328.932C113.183 324.249 114.996 320.727 116.485 318.365C117.061 317.424 117.714 316.627 118.447 315.973L120.644 314.013C117.473 314.672 114.013 315.802 110.267 317.402C102.465 320.657 95.0102 325.269 87.9038 331.24C84.3929 334.165 81.3995 337.315 78.9236 340.69C76.4658 344.168 74.6193 347.801 73.384 351.59C72.1307 355.277 71.8487 359.057 72.5381 362.93C72.7196 363.949 73.0826 365.095 73.6271 366.366C74.1716 367.637 75.3729 368.425 77.231 368.731C77.7999 368.947 77.9996 369.175 77.8301 369.415C77.6606 369.655 77.4215 369.802 77.1128 369.856C75.981 370.053 74.365 369.915 72.2649 369.441C70.1647 368.967 68.1373 368.008 66.1825 366.563C64.3307 365.099 63.1689 363.043 62.6972 360.393C61.8989 355.908 62.5198 351.648 64.5601 347.613C66.5156 343.699 69.2215 340.126 72.678 336.894C76.2191 333.543 80.2445 330.528 84.754 327.849C89.1605 325.187 93.4158 322.868 97.5196 320.89C100.855 319.361 104.166 317.995 107.452 316.79C110.739 315.585 113.042 314.815 114.362 314.48C116.571 313.779 118.789 313.128 121.017 312.529C123.329 311.81 125.841 311.319 128.552 311.055C131.881 310.684 133.691 311.314 133.981 312.945C134.217 314.27 133.342 316.209 131.356 318.763C129.879 320.597 128.248 323.352 126.462 327.027C124.676 330.702 122.775 334.923 120.759 339.689C118.845 344.437 116.926 349.449 115 354.725C113.075 360.001 111.286 365.148 109.633 370.166C107.98 375.184 106.469 379.809 105.101 384.042C103.835 388.257 102.905 391.677 102.312 394.303C101.422 398.242 100.758 402.562 100.322 407.262C99.8673 411.861 99.5731 416.168 99.4394 420.185C99.4086 424.185 99.5928 427.305 99.9919 429.548C100.808 434.134 101.937 436.302 103.377 436.05C104.303 435.889 105.09 434.648 105.738 432.327C107.391 427.309 109.732 421.383 112.759 414.548C115.871 407.594 119.434 400.193 123.447 392.345C127.358 384.516 131.602 376.47 136.179 368.209C140.756 359.948 145.327 351.95 149.892 344.217C160.22 326.543 170.95 312.32 182.082 301.548C193.317 290.757 205.041 282.719 217.256 277.432C218.933 276.719 220.482 276.186 221.904 275.832C223.412 275.359 224.783 275.014 226.017 274.798C228.075 274.439 229.758 274.355 231.065 274.547C232.354 274.637 233.035 274.886 233.108 275.294C233.235 276.008 231.6 276.661 228.205 277.254C224.604 277.883 220.684 279.408 216.447 281.83C212.228 284.354 207.913 287.525 203.5 291.343C199.069 295.06 194.677 299.295 190.325 304.049C185.869 308.821 181.605 313.77 177.531 318.895C173.354 324.039 169.452 329.239 165.826 334.497C162.182 339.653 158.982 344.626 156.228 349.416C151.445 357.713 146.662 366.01 141.88 374.307C137.2 382.586 132.859 390.386 128.858 397.706C124.771 405.146 121.142 411.876 117.969 417.895C114.9 423.896 112.627 428.707 111.149 432.328C110.193 434.702 109.094 436.576 107.853 437.949C106.63 439.423 104.938 440.349 102.778 440.727Z" fill="#F4F3F3" fill-opacity="0.8"/>
<path d="M161.732 490.336C160.086 490.624 158.43 490.86 156.766 491.046C155.204 491.214 153.582 491.339 151.899 491.423C146.815 491.47 142.415 490.294 138.7 487.896C135.002 485.599 132.736 482.106 131.901 477.418C131.756 476.602 131.662 475.778 131.62 474.944C131.56 474.009 131.551 473.065 131.593 472.111C132.005 468.466 133.48 464.53 136.016 460.304C138.656 456.059 141.991 451.851 146.023 447.679C150.036 443.404 154.431 439.484 159.207 435.917C163.964 432.248 168.728 429.209 173.498 426.8C167.118 427.914 162.046 427.434 158.282 425.359C154.602 423.164 152.409 420.079 151.701 416.104C151.066 412.536 151.043 409.125 151.63 405.869C152.302 402.494 153.413 399.199 154.963 395.986C148.336 396.303 142.435 396.23 137.26 395.768C132.17 395.185 128.315 394.387 125.694 393.374C124.296 392.672 123.561 392.118 123.488 391.71C123.434 391.404 123.664 391.206 124.178 391.116C124.59 391.044 125.458 391.155 126.784 391.449C130.367 392.505 134.718 393.111 139.839 393.268C145.062 393.407 150.754 393.2 156.916 392.65C159.725 388.165 163.378 383.954 167.876 380.016C172.373 376.077 177.261 372.543 182.539 369.414C187.817 366.285 193.083 363.684 198.337 361.61C203.591 359.537 208.43 358.113 212.855 357.341C215.427 356.891 218.32 356.754 221.534 356.928C224.748 357.102 227.58 357.816 230.031 359.07C232.567 360.203 234.071 362.095 234.543 364.745C235.105 367.905 234.351 370.822 232.281 373.495C230.192 376.067 227.372 378.399 223.819 380.491C220.35 382.463 216.631 384.216 212.66 385.751C208.671 387.183 205.058 388.34 201.82 389.22C199.181 389.892 196.49 390.572 193.748 391.261C190.988 391.848 188.219 392.384 185.441 392.87C182.046 393.463 178.632 393.954 175.2 394.343C171.768 394.732 168.327 395.071 164.877 395.358C162.383 398.631 160.346 402.087 158.766 405.726C157.168 409.263 156.668 412.714 157.267 416.077C157.775 418.931 159.781 421.261 163.285 423.066C166.892 424.853 171.268 425.298 176.412 424.399C178.985 423.95 181.648 423.117 184.402 421.9C187.156 420.683 189.15 419.967 190.385 419.751C191.481 419.35 192.609 419.731 193.771 420.894C194.933 422.057 195.614 423.199 195.814 424.321C196.013 425.442 195.599 426.092 194.57 426.272C191.434 427.135 188.114 428.451 184.61 430.219C177.497 433.773 170.458 438.629 163.491 444.785C160.101 447.794 156.995 450.912 154.174 454.137C151.269 457.482 148.741 460.866 146.592 464.289C144.546 467.694 143.014 471.01 141.997 474.235C141.731 475.123 141.567 475.992 141.506 476.843C141.428 477.593 141.443 478.273 141.552 478.885C142.295 483.064 147.761 484.264 157.947 482.484C161.446 481.873 165.437 480.756 169.922 479.132C174.511 477.489 179.147 475.523 183.832 473.234C188.62 470.926 193.054 468.418 197.133 465.708C199.506 464.138 202.2 461.986 205.214 459.252C208.211 456.417 211.119 453.386 213.94 450.161C216.743 446.834 218.971 443.555 220.624 440.323C222.276 437.092 222.885 434.253 222.45 431.807C222.105 429.87 220.646 429.127 218.074 429.576C216.222 429.899 213.997 430.813 211.401 432.318C208.786 433.721 206.02 435.465 203.102 437.551C200.287 439.619 197.612 441.873 195.075 444.313C192.539 446.753 190.457 449.061 188.828 451.237C188.047 452.214 187.245 452.774 186.422 452.918C185.805 453.026 185.433 452.723 185.306 452.01C185.215 451.5 185.279 450.964 185.497 450.4C185.696 449.734 186.102 449.033 186.713 448.296C187.767 447.061 189.356 445.259 191.48 442.891C193.605 440.523 195.987 438.11 198.626 435.653C201.369 433.177 204.165 431.007 207.016 429.143C209.849 427.176 212.449 425.987 214.815 425.573C217.902 425.034 220.704 425.28 223.222 426.312C225.74 427.344 227.343 429.796 228.033 433.669C228.613 436.931 228.216 440.363 226.842 443.966C225.449 447.468 223.473 450.966 220.912 454.461C218.436 457.836 215.658 461.001 212.576 463.957C209.598 466.894 206.753 469.388 204.041 471.438C198.618 475.538 192.238 479.332 184.902 482.821C177.584 486.411 169.861 488.916 161.732 490.336ZM168.727 391.06C180.185 389.268 190.913 386.659 200.913 383.231C203.019 382.548 205.664 381.613 208.848 380.426C212.116 379.119 215.255 377.678 218.263 376.101C221.374 374.507 223.892 372.859 225.817 371.156C227.845 369.436 228.705 367.709 228.396 365.976C228.197 364.855 227.186 364.243 225.364 364.141C223.524 363.937 221.412 363.991 219.027 364.302C216.745 364.596 214.73 364.895 212.981 365.201C207.013 366.243 201.354 368.125 196.003 370.846C190.634 373.466 186.073 376.154 182.32 378.911C180.565 380.374 178.443 382.163 175.955 384.28C173.552 386.276 171.143 388.536 168.727 391.06Z" fill="#F4F3F3" fill-opacity="0.8"/>
<path d="M312.08 140.948C312.08 141.481 311.733 141.748 311.04 141.748C310.8 141.748 310.533 141.708 310.24 141.628C310.147 141.601 309.993 141.541 309.78 141.448C309.567 141.355 309.333 141.248 309.08 141.128C308.813 141.008 308.567 140.895 308.34 140.788C308.1 140.681 307.913 140.608 307.78 140.568C308.207 140.848 308.633 141.161 309.06 141.508C309.473 141.841 309.82 142.201 310.1 142.588C310.38 142.975 310.52 143.388 310.52 143.828C310.507 144.241 310.393 144.535 310.18 144.708C309.967 144.881 309.707 144.968 309.4 144.968C309.04 144.968 308.647 144.888 308.22 144.728C307.793 144.568 307.413 144.388 307.08 144.188C306.533 143.841 306 143.421 305.48 142.928C304.96 142.435 304.533 141.908 304.2 141.348C303.853 140.788 303.68 140.255 303.68 139.748C303.68 139.481 303.727 139.221 303.82 138.968C303.9 138.715 304.04 138.461 304.24 138.208C304.4 138.008 304.573 137.908 304.76 137.908C304.947 137.908 305.04 137.988 305.04 138.148C305.04 138.268 304.96 138.355 304.8 138.408C304.347 138.581 304.12 138.861 304.12 139.248C304.12 139.595 304.273 139.981 304.58 140.408C304.887 140.835 305.253 141.255 305.68 141.668C306.147 142.135 306.66 142.548 307.22 142.908C307.78 143.268 308.287 143.541 308.74 143.728C309.153 143.901 309.46 143.988 309.66 143.988C309.913 143.988 310.04 143.888 310.04 143.688C310.04 143.461 309.867 143.128 309.52 142.688C309.293 142.395 309 142.075 308.64 141.728C308.267 141.381 307.9 141.055 307.54 140.748C307.18 140.441 306.9 140.201 306.7 140.028C306.473 139.881 306.293 139.761 306.16 139.668C306.08 139.615 306.02 139.528 305.98 139.408C305.94 139.288 305.92 139.161 305.92 139.028C305.92 138.868 305.953 138.735 306.02 138.628C306.073 138.521 306.16 138.495 306.28 138.548C306.4 138.601 306.633 138.721 306.98 138.908C307.313 139.081 307.693 139.281 308.12 139.508C308.547 139.721 308.953 139.928 309.34 140.128C309.727 140.315 310.027 140.455 310.24 140.548C310.653 140.735 310.96 140.828 311.16 140.828C311.333 140.828 311.42 140.761 311.42 140.628C311.42 140.535 311.367 140.395 311.26 140.208C311.113 139.915 310.907 139.621 310.64 139.328C310.36 139.035 310.067 138.755 309.76 138.488C309.613 138.341 309.473 138.208 309.34 138.088C309.207 137.968 309.067 137.855 308.92 137.748C308.88 137.708 308.86 137.675 308.86 137.648C308.86 137.568 308.92 137.528 309.04 137.528C309.107 137.528 309.167 137.555 309.22 137.608C309.407 137.755 309.587 137.901 309.76 138.048C309.933 138.195 310.107 138.348 310.28 138.508C310.453 138.655 310.627 138.808 310.8 138.968C310.96 139.115 311.113 139.268 311.26 139.428C311.54 139.721 311.747 140.001 311.88 140.268C312.013 140.521 312.08 140.748 312.08 140.948ZM315.52 137.18C315.52 137.433 315.413 137.653 315.2 137.84C314.987 138.027 314.653 138.12 314.2 138.12C313.947 138.12 313.687 138.093 313.42 138.04C312.167 137.813 310.847 137.46 309.46 136.98C308.073 136.5 306.7 135.9 305.34 135.18C305.62 136.02 305.76 136.713 305.76 137.26C305.76 137.513 305.74 137.7 305.7 137.82C305.647 137.94 305.593 138 305.54 138C305.46 138 305.427 137.873 305.44 137.62C305.453 137.567 305.46 137.52 305.46 137.48C305.46 137.427 305.46 137.373 305.46 137.32C305.46 137 305.413 136.64 305.32 136.24C305.213 135.84 305.073 135.413 304.9 134.96C303.58 134.24 302.333 133.447 301.16 132.58C299.973 131.7 298.92 130.76 298 129.76C297.693 129.413 297.453 129.06 297.28 128.7C297.093 128.327 297 127.987 297 127.68C297 127.413 297.073 127.187 297.22 127C297.367 126.813 297.613 126.687 297.96 126.62C298.013 126.607 298.073 126.6 298.14 126.6C298.207 126.587 298.273 126.58 298.34 126.58C298.593 126.58 298.867 126.633 299.16 126.74C300 127.073 300.847 127.747 301.7 128.76C302.127 129.253 302.527 129.78 302.9 130.34C303.273 130.9 303.627 131.487 303.96 132.1C304.293 132.713 304.58 133.307 304.82 133.88C305.58 134.32 306.353 134.727 307.14 135.1C307.927 135.473 308.7 135.793 309.46 136.06C310.233 136.34 310.98 136.56 311.7 136.72C312.407 136.88 313.073 136.967 313.7 136.98C314.287 136.98 314.58 136.833 314.58 136.54C314.58 136.367 314.513 136.147 314.38 135.88C314.14 135.467 313.893 135.113 313.64 134.82C313.387 134.527 313.087 134.227 312.74 133.92C312.567 133.773 312.313 133.567 311.98 133.3C311.633 133.02 311.267 132.72 310.88 132.4C310.48 132.08 310.113 131.773 309.78 131.48C309.46 131.213 309.153 130.947 308.86 130.68C308.82 130.64 308.8 130.607 308.8 130.58C308.8 130.5 308.853 130.46 308.96 130.46C309.027 130.46 309.093 130.487 309.16 130.54C309.347 130.687 309.54 130.847 309.74 131.02C309.94 131.18 310.127 131.333 310.3 131.48C310.38 131.56 310.553 131.707 310.82 131.92C311.073 132.133 311.38 132.387 311.74 132.68C312.087 132.973 312.44 133.273 312.8 133.58C313.173 133.887 313.513 134.173 313.82 134.44C314.127 134.693 314.36 134.9 314.52 135.06C314.8 135.353 315.033 135.673 315.22 136.02C315.42 136.353 315.52 136.74 315.52 137.18ZM304.28 133.56C303.96 132.907 303.58 132.24 303.14 131.56C302.687 130.88 302.207 130.233 301.7 129.62C301.18 129.007 300.653 128.48 300.12 128.04C299.587 127.6 299.067 127.293 298.56 127.12C298.4 127.067 298.24 127.04 298.08 127.04C297.667 127.04 297.46 127.207 297.46 127.54C297.46 127.753 297.553 127.973 297.74 128.2C298.447 129.093 299.373 130.007 300.52 130.94C301.667 131.873 302.92 132.747 304.28 133.56ZM315.52 130.164C315.52 130.418 315.413 130.638 315.2 130.824C314.987 131.011 314.653 131.104 314.2 131.104C313.947 131.104 313.687 131.078 313.42 131.024C312.167 130.798 310.847 130.444 309.46 129.964C308.073 129.484 306.7 128.884 305.34 128.164C305.62 129.004 305.76 129.698 305.76 130.244C305.76 130.498 305.74 130.684 305.7 130.804C305.647 130.924 305.593 130.984 305.54 130.984C305.46 130.984 305.427 130.858 305.44 130.604C305.453 130.551 305.46 130.504 305.46 130.464C305.46 130.411 305.46 130.358 305.46 130.304C305.46 129.984 305.413 129.624 305.32 129.224C305.213 128.824 305.073 128.398 304.9 127.944C303.58 127.224 302.333 126.431 301.16 125.564C299.973 124.684 298.92 123.744 298 122.744C297.693 122.398 297.453 122.044 297.28 121.684C297.093 121.311 297 120.971 297 120.664C297 120.398 297.073 120.171 297.22 119.984C297.367 119.798 297.613 119.671 297.96 119.604C298.013 119.591 298.073 119.584 298.14 119.584C298.207 119.571 298.273 119.564 298.34 119.564C298.593 119.564 298.867 119.618 299.16 119.724C300 120.058 300.847 120.731 301.7 121.744C302.127 122.238 302.527 122.764 302.9 123.324C303.273 123.884 303.627 124.471 303.96 125.084C304.293 125.698 304.58 126.291 304.82 126.864C305.58 127.304 306.353 127.711 307.14 128.084C307.927 128.458 308.7 128.778 309.46 129.044C310.233 129.324 310.98 129.544 311.7 129.704C312.407 129.864 313.073 129.951 313.7 129.964C314.287 129.964 314.58 129.818 314.58 129.524C314.58 129.351 314.513 129.131 314.38 128.864C314.14 128.451 313.893 128.098 313.64 127.804C313.387 127.511 313.087 127.211 312.74 126.904C312.567 126.758 312.313 126.551 311.98 126.284C311.633 126.004 311.267 125.704 310.88 125.384C310.48 125.064 310.113 124.758 309.78 124.464C309.46 124.198 309.153 123.931 308.86 123.664C308.82 123.624 308.8 123.591 308.8 123.564C308.8 123.484 308.853 123.444 308.96 123.444C309.027 123.444 309.093 123.471 309.16 123.524C309.347 123.671 309.54 123.831 309.74 124.004C309.94 124.164 310.127 124.318 310.3 124.464C310.38 124.544 310.553 124.691 310.82 124.904C311.073 125.118 311.38 125.371 311.74 125.664C312.087 125.958 312.44 126.258 312.8 126.564C313.173 126.871 313.513 127.158 313.82 127.424C314.127 127.678 314.36 127.884 314.52 128.044C314.8 128.338 315.033 128.658 315.22 129.004C315.42 129.338 315.52 129.724 315.52 130.164ZM304.28 126.544C303.96 125.891 303.58 125.224 303.14 124.544C302.687 123.864 302.207 123.218 301.7 122.604C301.18 121.991 300.653 121.464 300.12 121.024C299.587 120.584 299.067 120.278 298.56 120.104C298.4 120.051 298.24 120.024 298.08 120.024C297.667 120.024 297.46 120.191 297.46 120.524C297.46 120.738 297.553 120.958 297.74 121.184C298.447 122.078 299.373 122.991 300.52 123.924C301.667 124.858 302.92 125.731 304.28 126.544ZM314.44 115.29C314.44 115.45 314.393 115.604 314.3 115.75C314.22 115.897 314.053 116.017 313.8 116.11C313.6 116.19 313.367 116.23 313.1 116.23C312.753 116.23 312.38 116.177 311.98 116.07C311.58 115.964 311.193 115.85 310.82 115.73C310.433 115.597 310.093 115.51 309.8 115.47C310.133 115.697 310.473 115.95 310.82 116.23C311.153 116.497 311.433 116.777 311.66 117.07C311.887 117.35 312 117.624 312 117.89C312 118.264 311.88 118.524 311.64 118.67C311.387 118.804 311.1 118.87 310.78 118.87C310.567 118.87 310.353 118.85 310.14 118.81C309.927 118.77 309.733 118.724 309.56 118.67C308.973 118.457 308.407 118.21 307.86 117.93C307.3 117.65 306.733 117.357 306.16 117.05C305.947 116.944 305.76 116.75 305.6 116.47C305.44 116.177 305.36 115.924 305.36 115.71C305.36 115.497 305.427 115.39 305.56 115.39C305.667 115.39 305.813 115.457 306 115.59C306.133 115.67 306.34 115.797 306.62 115.97C306.887 116.13 307.193 116.31 307.54 116.51C307.887 116.71 308.24 116.904 308.6 117.09C308.947 117.264 309.253 117.41 309.52 117.53C309.813 117.664 310.08 117.764 310.32 117.83C310.547 117.884 310.747 117.91 310.92 117.91C311.28 117.91 311.46 117.79 311.46 117.55C311.46 117.43 311.407 117.29 311.3 117.13C311.18 116.957 310.993 116.784 310.74 116.61C310.66 116.544 310.52 116.437 310.32 116.29C310.12 116.144 309.9 115.99 309.66 115.83C309.42 115.67 309.193 115.517 308.98 115.37C308.753 115.224 308.587 115.117 308.48 115.05C308.267 114.97 308.013 114.864 307.72 114.73C307.427 114.597 307.153 114.464 306.9 114.33C306.647 114.197 306.473 114.097 306.38 114.03C306.167 113.857 306.06 113.65 306.06 113.41C306.06 113.29 306.093 113.19 306.16 113.11C306.227 113.017 306.32 112.97 306.44 112.97C306.547 112.97 306.667 113.017 306.8 113.11C307.227 113.364 307.7 113.61 308.22 113.85C308.727 114.09 309.34 114.344 310.06 114.61C310.287 114.69 310.573 114.797 310.92 114.93C311.267 115.05 311.627 115.17 312 115.29C312.373 115.397 312.707 115.484 313 115.55C313.307 115.617 313.527 115.637 313.66 115.61C313.847 115.544 313.927 115.404 313.9 115.19C313.9 114.977 313.747 114.737 313.44 114.47C313.133 114.217 312.747 113.957 312.28 113.69C311.813 113.41 311.293 113.13 310.72 112.85C310.147 112.584 309.587 112.33 309.04 112.09C308.6 111.89 308.133 111.69 307.64 111.49C307.133 111.29 306.767 111.137 306.54 111.03C305.78 110.697 305.067 110.337 304.4 109.95C303.72 109.564 303.173 109.17 302.76 108.77C302.333 108.357 302.12 107.97 302.12 107.61C302.12 107.29 302.28 107.017 302.6 106.79C302.973 106.524 303.353 106.344 303.74 106.25C304.113 106.157 304.547 106.05 305.04 105.93H305.14C305.3 105.93 305.38 105.97 305.38 106.05C305.38 106.13 305.3 106.197 305.14 106.25C304.767 106.357 304.413 106.53 304.08 106.77C303.747 107.01 303.527 107.204 303.42 107.35C303.167 107.604 303.04 107.844 303.04 108.07C303.04 108.35 303.207 108.617 303.54 108.87C303.86 109.11 304.267 109.33 304.76 109.53C305.253 109.73 305.747 109.91 306.24 110.07C306.573 110.177 307.007 110.33 307.54 110.53C308.087 110.744 308.667 110.984 309.28 111.25C309.88 111.517 310.487 111.81 311.1 112.13C311.713 112.464 312.267 112.804 312.76 113.15C313.253 113.497 313.653 113.857 313.96 114.23C314.28 114.59 314.44 114.944 314.44 115.29ZM314.88 108.037C314.88 108.557 314.667 108.957 314.24 109.237C313.827 109.517 313.233 109.657 312.46 109.657C312.327 109.657 312.193 109.65 312.06 109.637C311.927 109.637 311.787 109.63 311.64 109.617C310.987 109.537 310.273 109.337 309.5 109.017C308.727 108.684 307.9 108.177 307.02 107.497C306.433 107.044 305.993 106.55 305.7 106.017C305.407 105.484 305.26 104.97 305.26 104.477C305.26 104.13 305.327 103.824 305.46 103.557C305.633 103.237 305.947 103.077 306.4 103.077C306.733 103.077 307.107 103.197 307.52 103.437C307.92 103.677 308.307 104.084 308.68 104.657C309.16 105.417 309.48 106.05 309.64 106.557C309.8 107.064 309.887 107.47 309.9 107.777C310.047 107.884 310.28 107.99 310.6 108.097C310.907 108.204 311.233 108.297 311.58 108.377C311.913 108.444 312.213 108.49 312.48 108.517C312.533 108.517 312.587 108.524 312.64 108.537C312.707 108.537 312.773 108.537 312.84 108.537C313.24 108.537 313.58 108.47 313.86 108.337C314.153 108.19 314.3 107.937 314.3 107.577C314.3 107.257 314.18 106.897 313.94 106.497C313.713 106.097 313.433 105.704 313.1 105.317C312.78 104.917 312.467 104.57 312.16 104.277C311.867 103.97 311.647 103.757 311.5 103.637L309.78 102.157L308.86 101.357C308.82 101.317 308.8 101.284 308.8 101.257C308.8 101.177 308.853 101.137 308.96 101.137C309 101.137 309.067 101.17 309.16 101.237C309.347 101.37 309.54 101.524 309.74 101.697C309.94 101.857 310.127 102.01 310.3 102.157C310.513 102.344 310.787 102.577 311.12 102.857C311.453 103.124 311.8 103.41 312.16 103.717C312.52 104.01 312.833 104.297 313.1 104.577C313.593 105.084 314.013 105.63 314.36 106.217C314.707 106.79 314.88 107.397 314.88 108.037ZM309.58 107.597C309.567 107.41 309.493 107.177 309.36 106.897C309.227 106.617 309.067 106.324 308.88 106.017C308.693 105.71 308.507 105.43 308.32 105.177C308.12 104.91 307.953 104.697 307.82 104.537C307.58 104.23 307.313 104.004 307.02 103.857C306.727 103.71 306.473 103.637 306.26 103.637C306.113 103.637 305.987 103.677 305.88 103.757C305.773 103.824 305.72 103.93 305.72 104.077C305.72 104.357 305.86 104.664 306.14 104.997C306.407 105.317 306.753 105.644 307.18 105.977C307.593 106.297 308.02 106.604 308.46 106.897C308.887 107.177 309.26 107.41 309.58 107.597ZM312.02 92.1339C312.02 92.3606 311.933 92.5206 311.76 92.6139C311.587 92.7072 311.38 92.7539 311.14 92.7539C310.713 92.7539 310.227 92.6406 309.68 92.4139C309.133 92.1739 308.573 91.9006 308 91.5939C307.427 91.2872 306.887 91.0206 306.38 90.7939C305.86 90.5539 305.42 90.4339 305.06 90.4339C304.887 90.4339 304.747 90.4672 304.64 90.5339C304.533 90.5872 304.48 90.6739 304.48 90.7939C304.48 90.9539 304.567 91.1472 304.74 91.3739C304.913 91.6272 305.2 91.9139 305.6 92.2339L306.52 92.9739C307 93.3606 307.513 93.7539 308.06 94.1539C308.593 94.5406 309.093 94.8939 309.56 95.2139C310.027 95.5206 310.4 95.7472 310.68 95.8939C310.893 96.0139 311 96.1539 311 96.3139C311 96.4072 310.953 96.4939 310.86 96.5739C310.767 96.6539 310.647 96.6939 310.5 96.6939C310.407 96.6939 310.3 96.6739 310.18 96.6339C309.287 96.1672 308.333 95.7272 307.32 95.3139C306.307 94.8872 305.387 94.4672 304.56 94.0539C304.333 93.9339 304.14 93.7339 303.98 93.4539C303.807 93.1739 303.72 92.9272 303.72 92.7139C303.72 92.5139 303.793 92.4139 303.94 92.4139C304.02 92.4139 304.173 92.4739 304.4 92.5939C304.627 92.7406 304.92 92.9206 305.28 93.1339C305.64 93.3472 306.02 93.5672 306.42 93.7939C306.82 94.0206 307.2 94.2339 307.56 94.4339C307.92 94.6206 308.213 94.7606 308.44 94.8539C308.24 94.7072 307.94 94.5072 307.54 94.2539C307.14 93.9872 306.673 93.6272 306.14 93.1739L305.38 92.5339C304.873 92.1072 304.527 91.7139 304.34 91.3539C304.153 90.9939 304.06 90.6606 304.06 90.3539C304.06 90.1139 304.12 89.9072 304.24 89.7339C304.36 89.5606 304.567 89.4739 304.86 89.4739C305.207 89.4739 305.553 89.5472 305.9 89.6939C306.233 89.8406 306.5 89.9606 306.7 90.0539C306.913 90.1472 307.207 90.2806 307.58 90.4539C307.953 90.6272 308.353 90.8006 308.78 90.9739C309.207 91.1472 309.607 91.2939 309.98 91.4139C310.353 91.5339 310.64 91.5939 310.84 91.5939C311.013 91.5939 311.1 91.5406 311.1 91.4339C311.1 91.3006 311.033 91.1272 310.9 90.9139C310.753 90.6872 310.593 90.4672 310.42 90.2539C310.247 90.0272 310.107 89.8539 310 89.7339C309.6 89.2939 309.133 88.8472 308.6 88.3939C308.52 88.3272 308.48 88.2739 308.48 88.2339C308.48 88.1939 308.52 88.1739 308.6 88.1739C308.64 88.1739 308.693 88.1939 308.76 88.2339C308.827 88.2606 308.9 88.2939 308.98 88.3339C309.113 88.4139 309.293 88.5406 309.52 88.7139C309.733 88.8872 309.94 89.0672 310.14 89.2539C310.447 89.5339 310.74 89.8472 311.02 90.1939C311.3 90.5272 311.553 90.9006 311.78 91.3139C311.833 91.4206 311.88 91.5206 311.92 91.6139C311.947 91.6939 311.967 91.7606 311.98 91.8139C311.993 91.8672 312 91.9206 312 91.9739C312.013 92.0272 312.02 92.0806 312.02 92.1339ZM314.88 86.9706C314.88 87.4906 314.667 87.8906 314.24 88.1706C313.827 88.4506 313.233 88.5906 312.46 88.5906C312.327 88.5906 312.193 88.584 312.06 88.5706C311.927 88.5706 311.787 88.564 311.64 88.5506C310.987 88.4706 310.273 88.2706 309.5 87.9506C308.727 87.6173 307.9 87.1106 307.02 86.4306C306.433 85.9773 305.993 85.484 305.7 84.9506C305.407 84.4173 305.26 83.904 305.26 83.4106C305.26 83.064 305.327 82.7573 305.46 82.4906C305.633 82.1706 305.947 82.0106 306.4 82.0106C306.733 82.0106 307.107 82.1306 307.52 82.3706C307.92 82.6106 308.307 83.0173 308.68 83.5906C309.16 84.3506 309.48 84.984 309.64 85.4906C309.8 85.9973 309.887 86.404 309.9 86.7106C310.047 86.8173 310.28 86.924 310.6 87.0306C310.907 87.1373 311.233 87.2306 311.58 87.3106C311.913 87.3773 312.213 87.424 312.48 87.4506C312.533 87.4506 312.587 87.4573 312.64 87.4706C312.707 87.4706 312.773 87.4706 312.84 87.4706C313.24 87.4706 313.58 87.404 313.86 87.2706C314.153 87.124 314.3 86.8706 314.3 86.5106C314.3 86.1906 314.18 85.8306 313.94 85.4306C313.713 85.0306 313.433 84.6373 313.1 84.2506C312.78 83.8506 312.467 83.504 312.16 83.2106C311.867 82.904 311.647 82.6906 311.5 82.5706L309.78 81.0906L308.86 80.2906C308.82 80.2506 308.8 80.2173 308.8 80.1906C308.8 80.1106 308.853 80.0706 308.96 80.0706C309 80.0706 309.067 80.104 309.16 80.1706C309.347 80.304 309.54 80.4573 309.74 80.6306C309.94 80.7906 310.127 80.944 310.3 81.0906C310.513 81.2773 310.787 81.5106 311.12 81.7906C311.453 82.0573 311.8 82.344 312.16 82.6506C312.52 82.944 312.833 83.2306 313.1 83.5106C313.593 84.0173 314.013 84.564 314.36 85.1506C314.707 85.724 314.88 86.3306 314.88 86.9706ZM309.58 86.5306C309.567 86.344 309.493 86.1106 309.36 85.8306C309.227 85.5506 309.067 85.2573 308.88 84.9506C308.693 84.644 308.507 84.364 308.32 84.1106C308.12 83.844 307.953 83.6306 307.82 83.4706C307.58 83.164 307.313 82.9373 307.02 82.7906C306.727 82.644 306.473 82.5706 306.26 82.5706C306.113 82.5706 305.987 82.6106 305.88 82.6906C305.773 82.7573 305.72 82.864 305.72 83.0106C305.72 83.2906 305.86 83.5973 306.14 83.9306C306.407 84.2506 306.753 84.5773 307.18 84.9106C307.593 85.2306 308.02 85.5373 308.46 85.8306C308.887 86.1106 309.26 86.344 309.58 86.5306ZM314.88 78.6659C314.88 79.1859 314.667 79.5859 314.24 79.8659C313.827 80.1459 313.233 80.2859 312.46 80.2859C312.327 80.2859 312.193 80.2793 312.06 80.2659C311.927 80.2659 311.787 80.2593 311.64 80.2459C310.987 80.1659 310.273 79.9659 309.5 79.6459C308.727 79.3126 307.9 78.8059 307.02 78.1259C306.433 77.6726 305.993 77.1793 305.7 76.6459C305.407 76.1126 305.26 75.5993 305.26 75.1059C305.26 74.7593 305.327 74.4526 305.46 74.1859C305.633 73.8659 305.947 73.7059 306.4 73.7059C306.733 73.7059 307.107 73.8259 307.52 74.0659C307.92 74.3059 308.307 74.7126 308.68 75.2859C309.16 76.0459 309.48 76.6793 309.64 77.1859C309.8 77.6926 309.887 78.0993 309.9 78.4059C310.047 78.5126 310.28 78.6193 310.6 78.7259C310.907 78.8326 311.233 78.9259 311.58 79.0059C311.913 79.0726 312.213 79.1193 312.48 79.1459C312.533 79.1459 312.587 79.1526 312.64 79.1659C312.707 79.1659 312.773 79.1659 312.84 79.1659C313.24 79.1659 313.58 79.0993 313.86 78.9659C314.153 78.8193 314.3 78.5659 314.3 78.2059C314.3 77.8859 314.18 77.5259 313.94 77.1259C313.713 76.7259 313.433 76.3326 313.1 75.9459C312.78 75.5459 312.467 75.1993 312.16 74.9059C311.867 74.5993 311.647 74.3859 311.5 74.2659L309.78 72.7859L308.86 71.9859C308.82 71.9459 308.8 71.9126 308.8 71.8859C308.8 71.8059 308.853 71.7659 308.96 71.7659C309 71.7659 309.067 71.7993 309.16 71.8659C309.347 71.9993 309.54 72.1526 309.74 72.3259C309.94 72.4859 310.127 72.6393 310.3 72.7859C310.513 72.9726 310.787 73.2059 311.12 73.4859C311.453 73.7526 311.8 74.0393 312.16 74.3459C312.52 74.6393 312.833 74.9259 313.1 75.2059C313.593 75.7126 314.013 76.2593 314.36 76.8459C314.707 77.4193 314.88 78.0259 314.88 78.6659ZM309.58 78.2259C309.567 78.0393 309.493 77.8059 309.36 77.5259C309.227 77.2459 309.067 76.9526 308.88 76.6459C308.693 76.3393 308.507 76.0593 308.32 75.8059C308.12 75.5393 307.953 75.3259 307.82 75.1659C307.58 74.8593 307.313 74.6326 307.02 74.4859C306.727 74.3393 306.473 74.2659 306.26 74.2659C306.113 74.2659 305.987 74.3059 305.88 74.3859C305.773 74.4526 305.72 74.5593 305.72 74.7059C305.72 74.9859 305.86 75.2926 306.14 75.6259C306.407 75.9459 306.753 76.2726 307.18 76.6059C307.593 76.9259 308.02 77.2326 308.46 77.5259C308.887 77.8059 309.26 78.0393 309.58 78.2259ZM314.92 67.8612C314.92 68.1012 314.84 68.3079 314.68 68.4812C314.52 68.6412 314.273 68.7212 313.94 68.7212C313.447 68.7212 312.76 68.5479 311.88 68.2012C310.987 67.8546 309.987 67.4412 308.88 66.9612C309.32 67.2279 309.793 67.5546 310.3 67.9412C310.793 68.3146 311.213 68.7212 311.56 69.1612C311.907 69.6012 312.08 70.0546 312.08 70.5212C312.08 70.9346 311.98 71.2279 311.78 71.4012C311.567 71.5746 311.3 71.6612 310.98 71.6612C310.78 71.6612 310.527 71.6212 310.22 71.5412C309.913 71.4479 309.613 71.3412 309.32 71.2212C309.027 71.1012 308.8 70.9879 308.64 70.8812C308.093 70.5479 307.56 70.1346 307.04 69.6412C306.52 69.1346 306.093 68.6079 305.76 68.0612C305.413 67.5012 305.24 66.9612 305.24 66.4412C305.24 66.1079 305.32 65.7679 305.48 65.4212C304.84 65.1146 304.233 64.8079 303.66 64.5012C303.087 64.1812 302.587 63.8879 302.16 63.6212C301.413 63.1812 300.84 62.7812 300.44 62.4212C300.04 62.0479 299.753 61.6879 299.58 61.3412C299.407 60.9812 299.293 60.6079 299.24 60.2212C300.373 61.1146 301.493 61.9146 302.6 62.6212C303.693 63.3146 304.873 63.9879 306.14 64.6412C306.22 64.6146 306.28 64.6012 306.32 64.6012C306.413 64.6012 306.487 64.6346 306.54 64.7012C306.593 64.7546 306.62 64.8146 306.62 64.8812C306.887 65.0279 307.247 65.2079 307.7 65.4212C308.153 65.6346 308.653 65.8612 309.2 66.1012C309.733 66.3412 310.28 66.5746 310.84 66.8012C311.4 67.0279 311.927 67.2146 312.42 67.3612C313.033 67.5612 313.467 67.6612 313.72 67.6612C313.853 67.6612 313.92 67.6212 313.92 67.5412C313.92 67.3679 313.68 67.0612 313.2 66.6212L312.2 65.6812L311.5 65.0412L309.78 63.5612C309.633 63.4279 309.48 63.2946 309.32 63.1612C309.16 63.0279 309.007 62.9012 308.86 62.7812C308.82 62.7412 308.8 62.7012 308.8 62.6612C308.8 62.5812 308.847 62.5412 308.94 62.5412C308.993 62.5412 309.067 62.5746 309.16 62.6412C309.347 62.7746 309.54 62.9279 309.74 63.1012C309.94 63.2612 310.127 63.4146 310.3 63.5612C310.34 63.6012 310.473 63.7146 310.7 63.9012C310.927 64.0746 311.207 64.2946 311.54 64.5612C311.86 64.8146 312.193 65.0746 312.54 65.3412C312.887 65.6079 313.207 65.8546 313.5 66.0812C313.807 66.3079 314.04 66.4812 314.2 66.6012C314.427 66.7746 314.6 66.9746 314.72 67.2012C314.853 67.4279 314.92 67.6479 314.92 67.8612ZM311.6 70.3812C311.6 70.1546 311.427 69.8212 311.08 69.3812C310.867 69.1012 310.573 68.7879 310.2 68.4412C309.827 68.0812 309.46 67.7412 309.1 67.4212C308.727 67.1012 308.44 66.8679 308.24 66.7212C307.853 66.5612 307.453 66.3879 307.04 66.2012C306.627 66.0012 306.207 65.7946 305.78 65.5812C305.727 65.6879 305.7 65.8079 305.7 65.9412C305.7 66.3012 305.86 66.7079 306.18 67.1612C306.5 67.6012 306.853 68.0012 307.24 68.3612C307.72 68.8279 308.24 69.2479 308.8 69.6212C309.347 69.9812 309.847 70.2546 310.3 70.4412C310.673 70.6012 310.98 70.6812 311.22 70.6812C311.473 70.6812 311.6 70.5812 311.6 70.3812ZM303.26 53.4802C303.26 53.8268 303.093 54.0002 302.76 54.0002C302.56 54.0002 302.393 53.9268 302.26 53.7802C302.113 53.6335 302.04 53.4735 302.04 53.3002C302.04 53.1268 302.1 52.9935 302.22 52.9002C302.34 52.7935 302.487 52.7535 302.66 52.7802C302.833 52.8202 302.98 52.9068 303.1 53.0402C303.207 53.1602 303.26 53.3068 303.26 53.4802ZM312 56.7202C312 57.4135 311.567 57.7602 310.7 57.7602C310.513 57.7602 310.3 57.7402 310.06 57.7002C309.78 57.6468 309.447 57.5468 309.06 57.4002C308.66 57.2402 308.267 57.0668 307.88 56.8802C307.48 56.6802 307.14 56.5002 306.86 56.3402C306.647 56.2068 306.393 56.0535 306.1 55.8802C305.807 55.7068 305.533 55.5402 305.28 55.3802C305.027 55.2202 304.86 55.1202 304.78 55.0802C304.607 55.0002 304.473 54.8402 304.38 54.6002C304.273 54.3602 304.22 54.1468 304.22 53.9602C304.22 53.7468 304.28 53.6402 304.4 53.6402C304.48 53.6402 304.553 53.6668 304.62 53.7202C305.033 53.9735 305.513 54.2735 306.06 54.6202C306.607 54.9535 307.167 55.2802 307.74 55.6002C308.313 55.9202 308.86 56.1868 309.38 56.4002C309.9 56.6135 310.347 56.7202 310.72 56.7202C310.92 56.7202 311.08 56.6868 311.2 56.6202C311.32 56.5402 311.38 56.4002 311.38 56.2002C311.38 55.9868 311.28 55.7468 311.08 55.4802C310.867 55.2002 310.633 54.9335 310.38 54.6802C310.113 54.4135 309.907 54.2135 309.76 54.0802L309.34 53.6802C309.273 53.6135 309.207 53.5535 309.14 53.5002C309.06 53.4468 308.987 53.3935 308.92 53.3402C308.88 53.3002 308.86 53.2668 308.86 53.2402C308.86 53.1602 308.92 53.1202 309.04 53.1202C309.107 53.1202 309.167 53.1468 309.22 53.2002C309.407 53.3468 309.587 53.4935 309.76 53.6402C309.933 53.7868 310.107 53.9402 310.28 54.1002C310.68 54.4335 311.067 54.8202 311.44 55.2602C311.813 55.7002 312 56.1868 312 56.7202ZM315.18 54.3577C315.207 54.851 315.113 55.2443 314.9 55.5377C314.7 55.831 314.453 55.9777 314.16 55.9777C313.973 55.9777 313.773 55.9043 313.56 55.7577C313.36 55.6243 313.173 55.411 313 55.1177C312.667 54.5577 312.427 53.9243 312.28 53.2177C312.147 52.511 311.967 51.7977 311.74 51.0777L310.94 50.6977C310.593 50.5377 310.147 50.3777 309.6 50.2177C309.04 50.0577 308.467 49.9177 307.88 49.7977C307.293 49.6777 306.8 49.5977 306.4 49.5577C306.787 49.9443 307.173 50.3177 307.56 50.6777C307.933 51.0243 308.34 51.391 308.78 51.7777C309.22 52.1643 309.727 52.6043 310.3 53.0977C310.393 53.1777 310.44 53.2377 310.44 53.2777C310.44 53.3177 310.407 53.3377 310.34 53.3377C310.18 53.3377 310 53.2577 309.8 53.0977L308.08 51.6577C307.813 51.431 307.54 51.1843 307.26 50.9177C306.98 50.651 306.693 50.3777 306.4 50.0977L305.88 49.5977C305.653 49.5577 305.413 49.4977 305.16 49.4177C304.907 49.3377 304.693 49.2243 304.52 49.0777C304.347 48.9177 304.26 48.711 304.26 48.4577C304.26 48.191 304.333 48.011 304.48 47.9177C304.627 47.8243 304.773 47.7977 304.92 47.8377C304.96 47.9443 305.1 48.131 305.34 48.3977C305.567 48.6643 305.793 48.9243 306.02 49.1777C306.14 49.1643 306.273 49.1577 306.42 49.1577C306.553 49.1577 306.7 49.1577 306.86 49.1577C307.18 49.1577 307.54 49.171 307.94 49.1977C308.327 49.211 308.76 49.251 309.24 49.3177C309.947 49.4243 310.6 49.571 311.2 49.7577C311.027 49.4243 310.833 49.1043 310.62 48.7977C310.393 48.491 310.12 48.1843 309.8 47.8777C309.68 47.771 309.56 47.6643 309.44 47.5577C309.32 47.451 309.193 47.3443 309.06 47.2377C309.033 47.211 309.02 47.1843 309.02 47.1577C309.02 47.1177 309.053 47.0843 309.12 47.0577C309.187 47.0177 309.247 47.0177 309.3 47.0577C309.633 47.2977 309.953 47.571 310.26 47.8777C310.54 48.1577 310.8 48.471 311.04 48.8177C311.267 49.1643 311.48 49.531 311.68 49.9177C312.667 50.3043 313.473 50.8577 314.1 51.5777C314.74 52.2977 315.1 53.2243 315.18 54.3577ZM314.72 54.7977C314.72 54.651 314.7 54.491 314.66 54.3177C314.553 53.851 314.313 53.3643 313.94 52.8577C313.58 52.351 313.013 51.8577 312.24 51.3777C312.413 51.9643 312.567 52.5443 312.7 53.1177C312.833 53.7043 313.06 54.2777 313.38 54.8377C313.633 55.2777 313.92 55.4977 314.24 55.4977C314.56 55.4977 314.72 55.2643 314.72 54.7977ZM315.52 42.262C315.52 42.5154 315.413 42.7354 315.2 42.922C314.987 43.1087 314.653 43.202 314.2 43.202C313.947 43.202 313.687 43.1754 313.42 43.122C312.167 42.8954 310.847 42.542 309.46 42.062C308.073 41.582 306.7 40.982 305.34 40.262C305.62 41.102 305.76 41.7954 305.76 42.342C305.76 42.5954 305.74 42.782 305.7 42.902C305.647 43.022 305.593 43.082 305.54 43.082C305.46 43.082 305.427 42.9554 305.44 42.702C305.453 42.6487 305.46 42.602 305.46 42.562C305.46 42.5087 305.46 42.4554 305.46 42.402C305.46 42.082 305.413 41.722 305.32 41.322C305.213 40.922 305.073 40.4954 304.9 40.042C303.58 39.322 302.333 38.5287 301.16 37.662C299.973 36.782 298.92 35.842 298 34.842C297.693 34.4954 297.453 34.142 297.28 33.782C297.093 33.4087 297 33.0687 297 32.762C297 32.4954 297.073 32.2687 297.22 32.082C297.367 31.8954 297.613 31.7687 297.96 31.702C298.013 31.6887 298.073 31.682 298.14 31.682C298.207 31.6687 298.273 31.662 298.34 31.662C298.593 31.662 298.867 31.7154 299.16 31.822C300 32.1554 300.847 32.8287 301.7 33.842C302.127 34.3354 302.527 34.862 302.9 35.422C303.273 35.982 303.627 36.5687 303.96 37.182C304.293 37.7954 304.58 38.3887 304.82 38.962C305.58 39.402 306.353 39.8087 307.14 40.182C307.927 40.5554 308.7 40.8754 309.46 41.142C310.233 41.422 310.98 41.642 311.7 41.802C312.407 41.962 313.073 42.0487 313.7 42.062C314.287 42.062 314.58 41.9154 314.58 41.622C314.58 41.4487 314.513 41.2287 314.38 40.962C314.14 40.5487 313.893 40.1954 313.64 39.902C313.387 39.6087 313.087 39.3087 312.74 39.002C312.567 38.8554 312.313 38.6487 311.98 38.382C311.633 38.102 311.267 37.802 310.88 37.482C310.48 37.162 310.113 36.8554 309.78 36.562C309.46 36.2954 309.153 36.0287 308.86 35.762C308.82 35.722 308.8 35.6887 308.8 35.662C308.8 35.582 308.853 35.542 308.96 35.542C309.027 35.542 309.093 35.5687 309.16 35.622C309.347 35.7687 309.54 35.9287 309.74 36.102C309.94 36.262 310.127 36.4154 310.3 36.562C310.38 36.642 310.553 36.7887 310.82 37.002C311.073 37.2154 311.38 37.4687 311.74 37.762C312.087 38.0554 312.44 38.3554 312.8 38.662C313.173 38.9687 313.513 39.2554 313.82 39.522C314.127 39.7754 314.36 39.982 314.52 40.142C314.8 40.4354 315.033 40.7554 315.22 41.102C315.42 41.4354 315.52 41.822 315.52 42.262ZM304.28 38.642C303.96 37.9887 303.58 37.322 303.14 36.642C302.687 35.962 302.207 35.3154 301.7 34.702C301.18 34.0887 300.653 33.562 300.12 33.122C299.587 32.682 299.067 32.3754 298.56 32.202C298.4 32.1487 298.24 32.122 298.08 32.122C297.667 32.122 297.46 32.2887 297.46 32.622C297.46 32.8354 297.553 33.0554 297.74 33.282C298.447 34.1754 299.373 35.0887 300.52 36.022C301.667 36.9554 302.92 37.8287 304.28 38.642ZM312.08 33.4264C312.08 33.8797 311.887 34.2597 311.5 34.5664C311.113 34.8597 310.62 35.0064 310.02 35.0064C309.54 35.0064 309.067 34.9264 308.6 34.7664C308.147 34.6064 307.713 34.3931 307.3 34.1264C306.887 33.8464 306.5 33.5331 306.14 33.1864C305.673 32.7331 305.267 32.2197 304.92 31.6464C304.573 31.0597 304.4 30.5264 304.4 30.0464C304.4 29.6731 304.493 29.3864 304.68 29.1864C304.853 28.9731 305.067 28.8664 305.32 28.8664C305.48 28.8664 305.653 28.9197 305.84 29.0264C305.88 28.6797 305.9 28.3397 305.9 28.0064C305.9 27.7531 305.887 27.4997 305.86 27.2464C305.833 26.9931 305.793 26.7397 305.74 26.4864V26.4064C305.74 26.2997 305.767 26.2464 305.82 26.2464C305.873 26.2464 305.92 26.3064 305.96 26.4264C306.013 26.5597 306.067 26.7797 306.12 27.0864C306.173 27.3931 306.22 27.7131 306.26 28.0464C306.287 28.3797 306.3 28.6797 306.3 28.9464C306.3 29.0397 306.3 29.1197 306.3 29.1864C306.3 29.2531 306.293 29.3131 306.28 29.3664L306.38 29.5664C306.607 29.4064 306.92 29.3264 307.32 29.3264C307.853 29.3264 308.4 29.4597 308.96 29.7264C309.507 29.9797 310.02 30.3197 310.5 30.7464C310.967 31.1597 311.347 31.6064 311.64 32.0864C311.933 32.5531 312.08 32.9997 312.08 33.4264ZM311.6 33.2464C311.6 32.8864 311.473 32.5331 311.22 32.1864C310.953 31.8397 310.613 31.5264 310.2 31.2464C309.773 30.9531 309.32 30.7131 308.84 30.5264C308.347 30.3264 307.873 30.1931 307.42 30.1264C307.34 30.1131 307.267 30.1064 307.2 30.1064C307.12 30.1064 307.047 30.1064 306.98 30.1064C306.86 30.1064 306.753 30.1131 306.66 30.1264C306.553 30.1397 306.473 30.1664 306.42 30.2064C306.42 30.2331 306.413 30.2531 306.4 30.2664C306.373 30.4264 306.333 30.5464 306.28 30.6264C306.227 30.6931 306.167 30.7731 306.1 30.8664C306.033 30.9197 305.953 30.9464 305.86 30.9464C305.767 30.9464 305.693 30.9131 305.64 30.8464C305.587 30.7664 305.573 30.6797 305.6 30.5864C305.667 30.2531 305.727 29.8931 305.78 29.5064C305.553 29.3731 305.347 29.3064 305.16 29.3064C304.84 29.3064 304.68 29.5464 304.68 30.0264C304.68 30.3197 304.793 30.6264 305.02 30.9464C305.233 31.2531 305.52 31.5597 305.88 31.8664C306.227 32.1731 306.613 32.4664 307.04 32.7464C307.453 33.0264 307.86 33.2664 308.26 33.4664C308.527 33.5997 308.853 33.7197 309.24 33.8264C309.627 33.9197 310 33.9664 310.36 33.9664C310.693 33.9664 310.987 33.9131 311.24 33.8064C311.48 33.6864 311.6 33.4997 311.6 33.2464ZM313.8 27.0062C313.8 27.3796 313.68 27.6529 313.44 27.8262C313.213 27.9996 312.907 28.0863 312.52 28.0863C312.067 28.0863 311.54 27.9929 310.94 27.8062C310.34 27.6196 309.72 27.3729 309.08 27.0662C308.44 26.7596 307.833 26.4196 307.26 26.0462C306.687 25.6596 306.207 25.2796 305.82 24.9062C305.7 24.7862 305.613 24.6462 305.56 24.4862C305.507 24.3262 305.48 24.1729 305.48 24.0262C305.48 23.8929 305.5 23.7862 305.54 23.7062C305.58 23.6129 305.647 23.5662 305.74 23.5662C305.833 23.5662 305.94 23.6262 306.06 23.7462C306.167 23.8529 306.36 24.0062 306.64 24.2062C306.907 24.3929 307.213 24.6062 307.56 24.8462C307.907 25.0729 308.26 25.2929 308.62 25.5062C308.967 25.7196 309.273 25.8996 309.54 26.0462C309.887 26.2329 310.287 26.4262 310.74 26.6262C311.18 26.8262 311.6 26.9929 312 27.1262C312.413 27.2462 312.753 27.3062 313.02 27.3062C313.313 27.3062 313.46 27.2129 313.46 27.0262C313.46 26.5996 313.287 26.1596 312.94 25.7062C312.673 25.3729 312.287 25.0262 311.78 24.6662C311.273 24.2929 310.7 23.9329 310.06 23.5862C309.42 23.2396 308.753 22.9262 308.06 22.6462C307.367 22.3662 306.7 22.1462 306.06 21.9862C305.407 21.8262 304.833 21.7462 304.34 21.7462C304.033 21.7462 303.76 21.7529 303.52 21.7662C303.267 21.7796 303.027 21.8196 302.8 21.8862C302.76 21.8196 302.74 21.7529 302.74 21.6862C302.74 21.4596 302.913 21.2462 303.26 21.0462C303.593 20.8462 303.96 20.7462 304.36 20.7462C305.213 20.7462 306.093 20.8996 307 21.2062C307.893 21.4996 308.747 21.8729 309.56 22.3262C310.387 22.7929 311.127 23.3062 311.78 23.8662C312.433 24.4129 312.94 24.9462 313.3 25.4662C313.447 25.6929 313.567 25.9396 313.66 26.2062C313.753 26.4596 313.8 26.7262 313.8 27.0062ZM314.88 18.6698C314.88 19.1898 314.667 19.5898 314.24 19.8698C313.827 20.1498 313.233 20.2898 312.46 20.2898C312.327 20.2898 312.193 20.2832 312.06 20.2698C311.927 20.2698 311.787 20.2632 311.64 20.2498C310.987 20.1698 310.273 19.9698 309.5 19.6498C308.727 19.3165 307.9 18.8098 307.02 18.1298C306.433 17.6765 305.993 17.1832 305.7 16.6498C305.407 16.1165 305.26 15.6032 305.26 15.1098C305.26 14.7632 305.327 14.4565 305.46 14.1898C305.633 13.8698 305.947 13.7098 306.4 13.7098C306.733 13.7098 307.107 13.8298 307.52 14.0698C307.92 14.3098 308.307 14.7165 308.68 15.2898C309.16 16.0498 309.48 16.6832 309.64 17.1898C309.8 17.6965 309.887 18.1032 309.9 18.4098C310.047 18.5165 310.28 18.6232 310.6 18.7298C310.907 18.8365 311.233 18.9298 311.58 19.0098C311.913 19.0765 312.213 19.1232 312.48 19.1498C312.533 19.1498 312.587 19.1565 312.64 19.1698C312.707 19.1698 312.773 19.1698 312.84 19.1698C313.24 19.1698 313.58 19.1032 313.86 18.9698C314.153 18.8232 314.3 18.5698 314.3 18.2098C314.3 17.8898 314.18 17.5298 313.94 17.1298C313.713 16.7298 313.433 16.3365 313.1 15.9498C312.78 15.5498 312.467 15.2032 312.16 14.9098C311.867 14.6032 311.647 14.3898 311.5 14.2698L309.78 12.7898L308.86 11.9898C308.82 11.9498 308.8 11.9165 308.8 11.8898C308.8 11.8098 308.853 11.7698 308.96 11.7698C309 11.7698 309.067 11.8032 309.16 11.8698C309.347 12.0032 309.54 12.1565 309.74 12.3298C309.94 12.4898 310.127 12.6432 310.3 12.7898C310.513 12.9765 310.787 13.2098 311.12 13.4898C311.453 13.7565 311.8 14.0432 312.16 14.3498C312.52 14.6432 312.833 14.9298 313.1 15.2098C313.593 15.7165 314.013 16.2632 314.36 16.8498C314.707 17.4232 314.88 18.0298 314.88 18.6698ZM309.58 18.2298C309.567 18.0432 309.493 17.8098 309.36 17.5298C309.227 17.2498 309.067 16.9565 308.88 16.6498C308.693 16.3432 308.507 16.0632 308.32 15.8098C308.12 15.5432 307.953 15.3298 307.82 15.1698C307.58 14.8632 307.313 14.6365 307.02 14.4898C306.727 14.3432 306.473 14.2698 306.26 14.2698C306.113 14.2698 305.987 14.3098 305.88 14.3898C305.773 14.4565 305.72 14.5632 305.72 14.7098C305.72 14.9898 305.86 15.2965 306.14 15.6298C306.407 15.9498 306.753 16.2765 307.18 16.6098C307.593 16.9298 308.02 17.2365 308.46 17.5298C308.887 17.8098 309.26 18.0432 309.58 18.2298ZM312.14 9.58516C312.14 9.73182 312.1 9.84516 312.02 9.92516C311.953 10.0052 311.867 10.0785 311.76 10.1452C311.693 10.1852 311.633 10.2052 311.58 10.2052C311.5 10.2052 311.427 10.1852 311.36 10.1452C311.28 10.0918 311.22 10.0385 311.18 9.98516C311.113 9.89182 311.047 9.79182 310.98 9.68516C310.9 9.57849 310.833 9.46516 310.78 9.34516L310.64 9.06516C310.613 8.99849 310.567 8.91182 310.5 8.80516C310.473 8.76516 310.48 8.73182 310.52 8.70516C310.547 8.67849 310.573 8.67182 310.6 8.68516C310.787 8.80516 311.007 8.89182 311.26 8.94516C311.5 8.99849 311.707 9.06516 311.88 9.14516C312.053 9.22516 312.14 9.37182 312.14 9.58516Z" fill="#F4F3F3"/>
</svg>
